<svg width="96" height="65" viewBox="0 0 96 65" fill="none" xmlns="http://www.w3.org/2000/svg">
<path d="M29.5479 59.3867H30.0519V61.3914H32.5993V59.3867H33.1034V63.906H32.5993V61.8172H30.0519V63.906H29.5479V59.3867Z" fill="white"/>
<path d="M38.8094 63.7092C38.4492 63.5131 38.1665 63.2362 37.9595 62.8786C37.7524 62.5209 37.6489 62.111 37.6489 61.6498C37.6489 61.1887 37.7524 60.7788 37.9595 60.4211C38.1665 60.0635 38.4484 59.7857 38.8061 59.5871C39.1637 59.3885 39.5668 59.29 40.0154 59.29C40.4639 59.29 40.867 59.3893 41.2247 59.5871C41.5823 59.7857 41.8651 60.0635 42.0713 60.4211C42.2783 60.7788 42.3818 61.1887 42.3818 61.6498C42.3818 62.111 42.2783 62.5209 42.0713 62.8786C41.8642 63.2362 41.5806 63.5131 41.2213 63.7092C40.8611 63.9053 40.4597 64.0037 40.0154 64.0037C39.571 64.0037 39.1696 63.9053 38.8094 63.7092ZM40.9596 63.3179C41.244 63.163 41.4679 62.9417 41.632 62.6547C41.7961 62.3677 41.8777 62.0328 41.8777 61.649C41.8777 61.2694 41.7969 60.937 41.6353 60.65C41.4738 60.3631 41.2516 60.1417 40.9697 59.9843C40.6878 59.827 40.3739 59.7487 40.0288 59.7487C39.6796 59.7487 39.3632 59.8261 39.0787 59.9818C38.7943 60.1367 38.5687 60.3589 38.403 60.6475C38.2372 60.9362 38.1539 61.2703 38.1539 61.6498C38.1539 62.0336 38.2355 62.3686 38.3996 62.6555C38.5637 62.9425 38.7875 63.163 39.072 63.3187C39.3564 63.4736 39.6712 63.5518 40.0162 63.5518C40.3604 63.551 40.6751 63.4736 40.9596 63.3179Z" fill="white"/>
<path d="M47.3502 63.5509C47.0464 63.2496 46.894 62.8288 46.894 62.2902V59.3867H47.3981V62.3289C47.3981 62.7387 47.5126 63.0442 47.7406 63.2471C47.9687 63.4499 48.2876 63.5509 48.6975 63.5509C49.1073 63.5509 49.4263 63.4499 49.6543 63.2471C49.8824 63.0442 49.9968 62.7387 49.9968 62.3289V59.3867H50.5009V62.2902C50.5009 62.8288 50.3486 63.2496 50.0448 63.5509C49.741 63.853 49.2916 64.0036 48.6966 64.0036C48.1017 64.0036 47.654 63.8522 47.3502 63.5509Z" fill="white"/>
<path d="M55.6101 63.9388C55.3686 63.8959 55.1708 63.8378 55.0151 63.7646V63.2858C55.4199 63.4625 55.8558 63.5509 56.3212 63.5509C56.7092 63.5509 56.9945 63.4886 57.1779 63.3632C57.3614 63.2386 57.4531 63.051 57.4531 62.801C57.4531 62.6243 57.4152 62.4846 57.3403 62.3811C57.2646 62.2776 57.156 62.19 57.0138 62.1193C56.8716 62.0478 56.6259 61.9418 56.2766 61.7995C55.85 61.627 55.5403 61.4385 55.3484 61.234C55.1565 61.0295 55.0606 60.7694 55.0606 60.4547C55.0606 60.2266 55.122 60.0238 55.2449 59.8471C55.3677 59.6703 55.5411 59.5332 55.765 59.4364C55.9888 59.3396 56.248 59.2908 56.5409 59.2908C56.7782 59.2908 56.9919 59.3093 57.1838 59.3455C57.3757 59.3825 57.5642 59.4414 57.7493 59.523V59.9826C57.3875 59.8235 57.0079 59.7435 56.6116 59.7435C56.2665 59.7435 56.0056 59.8058 55.8289 59.9312C55.6522 60.0566 55.5638 60.2308 55.5638 60.4547C55.5638 60.6053 55.6 60.7349 55.6741 60.8427C55.7481 60.9504 55.8626 61.0497 56.0199 61.1397C56.1773 61.2306 56.3936 61.3291 56.6696 61.4368C56.9802 61.5572 57.2234 61.6708 57.4001 61.776C57.5768 61.882 57.714 62.015 57.8108 62.1766C57.9075 62.3381 57.9564 62.546 57.9564 62.8002C57.9564 63.1839 57.8209 63.4802 57.549 63.6889C57.2772 63.8984 56.8766 64.0028 56.3465 64.0028C56.0974 64.0036 55.8516 63.9818 55.6101 63.9388Z" fill="white"/>
<path d="M62.5024 59.3867H65.4117V59.8134H63.0065V61.4301H64.8108V61.8568H63.0065V63.4793H65.4117V63.906H62.5024V59.3867Z" fill="white"/>
<path d="M42.8389 12.3119C42.0074 12.3119 41.2264 12.3018 40.4463 12.3152C39.8337 12.3253 39.205 12.2875 38.6118 12.4095C37.7239 12.5921 37.0591 13.411 37.0465 14.3123C37.0179 16.3843 37.0414 18.458 37.0448 20.5308C37.0448 20.5569 37.0599 20.583 37.0793 20.6461C37.4614 20.6797 37.8611 20.7033 38.2566 20.753C40.5608 21.0441 42.3322 22.7138 42.7572 24.987C42.9415 25.9708 43.5264 26.4808 44.5228 26.4883C45.9795 26.4993 47.4371 26.4522 48.8921 26.5052C50.1023 26.5489 51.2602 25.7604 51.2611 24.1572C51.2619 23.1346 51.2703 22.1121 51.256 21.0896C51.2518 20.7807 51.3444 20.6789 51.6625 20.6806C52.6572 20.6865 53.641 20.694 54.5911 21.077C56.5233 21.8554 57.8622 23.7877 57.8731 25.879C57.8757 26.3251 57.8731 26.772 57.8731 27.2643C57.6981 27.2761 57.5508 27.2946 57.4035 27.2946C56.0731 27.2963 54.7426 27.3064 53.4121 27.2879C53.0325 27.2828 52.8928 27.3922 52.9088 27.7869C52.9391 28.5283 52.924 29.2715 52.9189 30.0137C52.9122 30.9656 52.1674 31.7205 51.214 31.723C48.7768 31.7297 46.3397 31.7297 43.9034 31.7247C42.8927 31.723 42.1614 30.9698 42.1227 29.9321C42.1042 29.4322 42.1421 28.9087 42.0082 28.4383C41.7356 27.4814 40.9041 26.947 39.8244 26.9411C38.0176 26.9319 36.2108 26.9479 34.4048 26.9285C33.1097 26.915 31.9526 25.826 31.876 24.5283C31.8196 23.5647 31.8339 22.5969 31.8322 21.6307C31.8272 19.2356 31.8348 16.8404 31.8272 14.4453C31.8247 13.7224 31.9458 13.0525 32.6334 12.6746C32.9406 12.5063 33.3108 12.391 33.6592 12.3725C35.015 12.3001 35.8683 11.4652 35.8868 10.1069C35.9003 9.12649 35.8902 8.14604 35.8902 7.1656C35.8902 6.03283 36.6038 5.31159 37.7466 5.30402C38.7127 5.29728 39.6797 5.29897 40.6458 5.30317C42.0057 5.30991 42.9053 4.44897 42.9533 3.0755C42.9685 2.64209 42.9584 2.20699 42.96 1.77273C42.9642 0.788081 43.6695 0.0272898 44.6574 0.014666C46.4222 -0.00721516 48.1869 -0.00216566 49.9516 0.0138244C50.6855 0.0205571 51.1348 0.555804 51.15 1.40075C51.1635 2.1565 51.1517 2.91308 51.155 3.66966C51.1601 4.63748 51.697 5.28466 52.6412 5.46981C55.4082 6.01095 57.6871 8.36822 58.1248 11.153C58.182 11.5191 58.2005 11.8919 58.24 12.2892C55.8837 12.2892 53.5947 12.2892 51.2628 12.2892C51.2628 11.9147 51.267 11.5545 51.2619 11.1943C51.2434 9.75262 51.2543 8.31015 51.1895 6.87104C51.1475 5.94951 50.64 5.19966 49.4231 5.23837C47.9959 5.28298 46.5661 5.25184 45.138 5.24931C43.7688 5.24679 42.8515 6.14981 42.8439 7.53253C42.8363 8.9607 42.8414 10.3897 42.8414 11.8187C42.8389 11.9593 42.8389 12.0981 42.8389 12.3119Z" fill="#0B72BA"/>
<path d="M59.0459 53.839C57.9359 53.839 56.8646 53.839 55.7664 53.839C55.7664 51.6938 55.7664 49.573 55.7664 47.3967C56.2915 47.3967 56.804 47.3841 57.3165 47.4009C57.6683 47.4127 57.7861 47.278 57.7583 46.9262C57.6556 45.6201 56.6104 44.3805 55.3936 44.1339C55.1158 44.0775 54.9332 44.1254 54.7691 44.3948C54.2154 45.3028 53.6255 46.1882 53.0608 47.0887C52.9287 47.2991 52.7805 47.39 52.5213 47.3857C51.6116 47.3681 50.7011 47.3672 49.7914 47.3849C49.5305 47.39 49.3841 47.2991 49.2528 47.087C48.7504 46.2791 48.2353 45.4787 47.722 44.6775C47.6437 44.5555 47.5545 44.441 47.4695 44.3224C47.435 44.3325 47.4005 44.3426 47.3669 44.3518C47.3669 47.5036 47.3669 50.6545 47.3669 53.8348C46.235 53.8348 45.1654 53.8348 44.052 53.8348C44.0453 53.6783 44.0326 53.5293 44.0326 53.3812C44.031 49.6286 44.031 45.8759 44.0318 42.1225C44.0318 41.2716 44.3819 40.9199 45.226 40.9173C46.2341 40.914 47.2423 40.9283 48.2505 40.9089C48.5433 40.903 48.6982 41.0108 48.8488 41.2498C49.836 42.8109 50.8383 44.3628 51.8372 45.9163C51.9095 46.0291 51.9912 46.136 52.0972 46.285C52.2032 46.1335 52.2849 46.0257 52.3572 45.9121C53.3612 44.3451 54.3685 42.7806 55.3616 41.206C55.4987 40.988 55.6452 40.9047 55.8985 40.9106C56.6121 40.9266 57.3266 40.9098 58.0402 40.9215C58.6621 40.9316 59.0661 41.3322 59.0669 41.9542C59.072 45.833 59.0694 49.7119 59.0678 53.5907C59.0678 53.6589 59.056 53.7271 59.0459 53.839Z" fill="white"/>
<path d="M15.0531 54.0123C14.0046 54.0123 13.025 54.0224 12.0454 54.0013C11.8965 53.998 11.7063 53.8843 11.6104 53.7623C11.1685 53.2018 10.7452 52.627 10.3337 52.0438C10.1806 51.8258 10.0123 51.7291 9.74212 51.7459C9.38362 51.7686 9.02259 51.7518 8.61528 51.7518C8.61528 52.5252 8.61528 53.2473 8.61528 53.9736C6.30944 54.1318 4.11552 54.0527 2.2759 52.4595C-0.181428 50.332 -0.729276 46.7242 1.02704 43.9604C2.35753 41.8674 4.25606 40.7624 6.76724 40.7708C8.71375 40.7767 10.6602 40.7725 12.6068 40.7725C12.7565 40.7725 12.9055 40.7725 13.0772 40.7725C13.0772 41.8977 13.0772 42.9699 13.0772 44.1001C12.9072 44.1001 12.7448 44.1001 12.5823 44.1001C10.5938 44.1001 8.60518 44.0967 6.6166 44.1009C4.95034 44.1043 3.51381 45.4576 3.3514 47.1694C3.19066 48.8601 4.23418 50.3 5.92064 50.6224C7.135 50.8546 8.14318 50.428 8.95948 49.5039C9.07729 49.3701 9.29526 49.2641 9.47282 49.2548C10.0737 49.2245 10.6771 49.2312 11.2779 49.2514C11.4219 49.2565 11.6162 49.3238 11.6962 49.4307C12.7902 50.8849 13.8674 52.3501 14.9488 53.8137C14.9791 53.8549 14.9976 53.9054 15.0531 54.0123Z" fill="white"/>
<path d="M83.2129 53.8398C83.2129 53.653 83.2129 53.5023 83.2129 53.3517C83.2129 49.4728 83.2129 45.5948 83.2129 41.7159C83.2129 41.03 83.3282 40.9164 84.0183 40.9156C84.6763 40.9156 85.3344 40.9139 85.9925 40.9164C86.5101 40.9181 86.5479 40.9551 86.5479 41.4626C86.5488 43.1146 86.5479 44.7667 86.5479 46.4195C86.5479 46.5719 86.5479 46.7242 86.5479 46.9371C87.2338 46.9371 87.8869 46.9481 88.5399 46.922C88.6114 46.9194 88.7301 46.7099 88.7326 46.5937C88.7494 45.7968 88.7419 44.9998 88.7419 44.1582C89.6162 44.0909 90.3871 43.8123 91.0048 43.1887C91.6141 42.5735 91.9145 41.827 91.9658 40.945C93.0296 40.945 94.0865 40.945 95.2008 40.945C95.1764 42.518 94.6706 43.8982 93.6624 45.0915C92.6525 46.2874 91.349 46.9977 89.7543 47.3175C91.45 49.509 93.1053 51.6466 94.8204 53.8617C93.6994 53.8617 92.6828 53.876 91.6679 53.8457C91.519 53.8415 91.3473 53.6496 91.2354 53.5057C89.8401 51.719 88.4532 49.9247 87.0647 48.133C86.9283 47.9571 86.7895 47.7821 86.5673 47.4993C86.5673 49.6849 86.5673 51.7501 86.5673 53.8406C85.4279 53.8398 84.3557 53.8398 83.2129 53.8398Z" fill="white"/>
<path d="M26.988 53.8626C25.8746 53.8626 24.8563 53.8769 23.8389 53.8474C23.6925 53.8432 23.5199 53.6539 23.4131 53.5108C22.3224 52.0549 21.2427 50.5914 20.1596 49.1304C20.0965 49.0454 20.025 48.9654 19.8794 48.7887C19.8794 50.5367 19.8794 52.1752 19.8794 53.839C18.75 53.839 17.6796 53.839 16.5469 53.839C16.5469 53.6766 16.5469 53.5285 16.5469 53.3812C16.5469 49.6294 16.5477 45.8777 16.5486 42.1267C16.5486 41.2792 16.9012 40.919 17.7385 40.919C19.6985 40.9182 21.6584 40.9098 23.6176 40.9291C24.1881 40.935 24.7654 40.9855 25.3268 41.0865C27.1142 41.4088 28.4085 43.092 28.2999 44.9081C28.1838 46.8556 26.6707 48.4588 24.8336 48.5581C24.2942 48.5876 23.7522 48.5623 23.2119 48.5623C23.1934 48.6002 23.1749 48.6389 23.1564 48.6768C24.412 50.3759 25.6676 52.0759 26.988 53.8626ZM19.8861 48.3326C20.8463 48.3326 21.7535 48.3216 22.6607 48.3384C22.9814 48.3443 23.0714 48.2206 23.0647 47.9193C23.0504 47.2057 23.0756 46.492 23.0579 45.7783C23.0487 45.3988 23.1833 45.2616 23.5704 45.2667C24.2117 45.2751 24.8605 45.2784 25.4925 45.1901C26.0732 45.1084 26.4107 44.67 26.5361 44.1112C26.6572 43.5734 26.4973 43.071 26.0395 42.7789C25.6524 42.5324 25.1845 42.2891 24.7436 42.2715C23.1514 42.2083 21.5549 42.242 19.961 42.2412C19.9392 42.2412 19.9173 42.2715 19.8861 42.295C19.8861 44.2854 19.8861 46.2825 19.8861 48.3326Z" fill="white"/>
<path d="M71.3729 47.2771C71.3502 48.5336 71.8004 49.5056 72.8027 50.1663C74.5363 51.3092 76.8186 50.5399 77.5221 48.5757C77.6282 48.2803 77.7578 48.1919 78.0548 48.197C79.0184 48.213 79.982 48.2029 80.9902 48.2029C80.9144 49.1059 80.6527 49.902 80.2395 50.6494C78.9536 52.9763 76.296 54.3086 73.8084 53.9879C71.1541 53.6462 68.8197 51.7443 68.1877 48.8837C67.3562 45.1193 70.1258 41.2026 73.9767 40.8617C76.0057 40.6825 78.0599 40.7835 80.1023 40.7599C80.3825 40.7565 80.5021 40.9106 80.5012 41.1841C80.4978 42.0517 80.492 42.9203 80.5029 43.7879C80.5079 44.1599 80.2538 44.0901 80.0417 44.0901C77.5078 44.0926 74.9731 44.1321 72.44 44.0783C70.7805 44.0438 69.5198 45.4113 69.2724 46.8328C69.216 47.1543 69.3549 47.2763 69.6528 47.2763C70.2116 47.278 70.7695 47.2771 71.3729 47.2771Z" fill="white"/>
<path d="M32.9857 43.7542C32.9857 47.1407 32.9857 50.4792 32.9857 53.8405C31.8605 53.8405 30.7901 53.8405 29.6649 53.8405C29.6649 53.6722 29.6649 53.5233 29.6649 53.3743C29.6649 49.6217 29.6641 45.8691 29.6641 42.1164C29.6641 41.2782 30.0226 40.918 30.865 40.9163C32.1811 40.9147 33.4973 40.9155 34.8135 40.9155C35.9967 40.9155 36.8551 41.4549 37.3533 42.5179C39.0818 46.2032 40.7961 49.8943 42.5145 53.5847C42.5473 53.6562 42.5658 53.7345 42.6079 53.8582C41.535 53.8582 40.5032 53.8624 39.4715 53.8498C39.3915 53.8489 39.2788 53.7421 39.2392 53.6579C38.2083 51.4538 37.1841 49.2455 36.1617 47.038C36.1457 47.0035 36.1541 46.9581 36.1465 46.8478C36.611 46.8478 37.0663 46.8545 37.5208 46.8461C37.9828 46.8377 38.088 46.6888 37.8725 46.2764C37.5502 45.6595 37.2279 45.0359 36.8341 44.4636C36.4916 43.9654 35.9445 43.7584 35.3369 43.755C34.5703 43.7508 33.8045 43.7542 32.9857 43.7542Z" fill="white"/>
<path d="M51.121 20.6039C49.5986 20.5787 48.2008 20.2092 46.9284 19.4114C44.498 17.8856 43.1717 15.6916 42.9554 12.826C42.931 12.4995 42.9908 12.3556 43.3762 12.3589C45.8268 12.3783 48.2765 12.3758 50.7271 12.364C51.0528 12.3623 51.163 12.4439 51.1614 12.7856C51.1471 15.2784 51.1521 17.7703 51.1496 20.2631C51.1496 20.3708 51.1319 20.4785 51.121 20.6039Z" fill="#0B72BA"/>
<path d="M65.354 53.8388C65.2244 53.8489 65.1293 53.8624 65.0342 53.8624C64.0546 53.864 63.0759 53.8632 62.0341 53.8632C62.0341 53.6873 62.0341 53.5392 62.0341 53.3919C62.0341 49.7504 62.0332 46.1097 62.0341 42.4682C62.0341 41.4221 62.5339 40.9197 63.5733 40.9163C63.9654 40.9154 64.3576 40.9096 64.7497 40.9197C65.136 40.9298 65.3329 41.1477 65.3649 41.5248C65.37 41.5803 65.3674 41.6367 65.3674 41.6931C65.3674 45.6426 65.3674 49.5922 65.3674 53.5409C65.3666 53.6242 65.3599 53.7075 65.354 53.8388Z" fill="white"/>
<path d="M56.7477 17.2831C56.7662 15.4686 58.265 13.9538 60.076 13.9841C61.8946 14.0135 63.369 15.3466 63.3875 17.3386C63.4044 19.1514 61.8357 20.6511 60.0441 20.6225C58.2263 20.5939 56.73 19.0782 56.7477 17.2831Z" fill="#0B72BA"/>
</svg>
