<svg width="186" height="41" viewBox="0 0 186 41" fill="none" xmlns="http://www.w3.org/2000/svg">
<path d="M57.5076 28.3282L54.0628 19.0371L50.6336 28.3282H57.5076ZM45.4985 35.2221L52.6392 16.5426H55.5003L62.6409 35.2221H60.0046L58.2987 30.4261H49.8739L48.168 35.2221H45.4985ZM67.4937 33.1224V40.5504H65.1884V21.2099H67.4937V23.3252C67.9799 22.4919 68.5897 21.8779 69.3285 21.4778C70.0778 21.0672 70.9595 20.8637 71.9823 20.8637C73.6882 20.8637 75.0734 21.5421 76.1381 22.899C77.2132 24.2454 77.7481 26.0233 77.7481 28.2342C77.7481 30.4348 77.2132 32.2074 76.1381 33.5695C75.0734 34.9159 73.6882 35.5874 71.9823 35.5874C70.9612 35.5874 70.0778 35.3891 69.3285 34.989C68.5897 34.575 67.9799 33.9505 67.4937 33.1224ZM75.3453 28.2308C75.3453 26.5382 74.9916 25.2091 74.2859 24.2419C73.6011 23.2747 72.6497 22.7894 71.4247 22.7894C70.205 22.7894 69.2379 23.2747 68.5305 24.2419C67.8352 25.2091 67.4867 26.5382 67.4867 28.2308C67.4867 29.9234 67.8352 31.2524 68.5305 32.2196C69.2362 33.1746 70.1998 33.6565 71.4247 33.6565C72.6444 33.6565 73.6011 33.1764 74.2859 32.2196C74.9916 31.2541 75.3453 29.9251 75.3453 28.2308ZM83.8015 33.1224V40.5504H81.4805V21.2099H83.8015V23.3252C84.2876 22.4919 84.8923 21.8779 85.6206 21.4778C86.3699 21.0672 87.2568 20.8637 88.2901 20.8637C89.9855 20.8637 91.3655 21.5421 92.4302 22.899C93.5053 24.2454 94.0402 26.0233 94.0402 28.2342C94.0402 30.4348 93.5053 32.2074 92.4302 33.5695C91.3655 34.9159 89.9855 35.5874 88.2901 35.5874C87.2585 35.5874 86.3699 35.3891 85.6206 34.989C84.8923 34.575 84.2824 33.9505 83.8015 33.1224ZM91.6374 28.2308C91.6374 26.5382 91.2836 25.2091 90.5779 24.2419C89.8931 23.2747 88.9418 22.7894 87.7168 22.7894C86.4971 22.7894 85.53 23.2747 84.8226 24.2419C84.1378 25.2091 83.7962 26.5382 83.7962 28.2308C83.7962 29.9234 84.1378 31.2524 84.8226 32.2196C85.5283 33.1746 86.4918 33.6565 87.7168 33.6565C88.9365 33.6565 89.8931 33.1764 90.5779 32.2196C91.2836 31.2541 91.6374 29.9251 91.6374 28.2308ZM110.63 32.5571V27.5436H106.506V25.4614H113.143V33.493C112.164 34.1871 111.083 34.7107 109.902 35.069C108.731 35.4169 107.478 35.5874 106.142 35.5874C103.211 35.5874 100.921 34.7333 99.2694 33.0302C97.628 31.3272 96.8038 28.951 96.8038 25.9015C96.8038 22.852 97.628 20.4758 99.2694 18.7727C100.923 17.0593 103.216 16.1982 106.142 16.1982C107.361 16.1982 108.517 16.353 109.602 16.6574C110.709 16.9514 111.726 17.395 112.652 17.9812V20.6776C111.716 19.8774 110.721 19.2789 109.667 18.8788C108.612 18.4787 107.506 18.2804 106.351 18.2804C104.066 18.2804 102.345 18.9154 101.184 20.187C100.045 21.4691 99.4785 23.3756 99.4785 25.8945C99.4785 28.4152 100.045 30.3165 101.184 31.5864C102.345 32.858 104.068 33.493 106.351 33.493C107.245 33.493 108.046 33.4182 108.752 33.2738C109.449 33.1224 110.074 32.8824 110.63 32.5571ZM126.26 28.1681H123.971C122.104 28.1681 120.815 28.3821 120.099 28.8135C119.383 29.2345 119.024 29.9616 119.024 30.9915C119.024 31.8143 119.29 32.4649 119.832 32.945C120.367 33.4199 121.099 33.6547 122.031 33.6547C123.315 33.6547 124.342 33.2007 125.112 32.2979C125.882 31.395 126.267 30.1895 126.267 28.6831V28.1647H126.26V28.1681ZM128.565 27.2218V35.2204H126.26V33.0894C125.736 33.9435 125.079 34.5732 124.303 34.9855C123.512 35.3856 122.549 35.5839 121.409 35.5839C119.975 35.5839 118.83 35.1838 117.98 34.3819C117.135 33.5695 116.718 32.4858 116.718 31.1306C116.718 29.5668 117.243 28.3752 118.297 27.5628C119.362 26.7626 120.939 26.3607 123.037 26.3607H126.262V26.1415C126.262 25.0787 125.913 24.2559 125.218 23.6801C124.523 23.1025 123.544 22.8155 122.282 22.8155C121.481 22.8155 120.703 22.9112 119.945 23.099C119.186 23.2852 118.454 23.5792 117.746 23.9636V21.8326C118.592 21.5073 119.411 21.2673 120.212 21.1072C121.003 20.9368 121.768 20.8567 122.517 20.8567C124.549 20.8567 126.069 21.3803 127.069 22.4328C128.067 23.4957 128.565 25.0856 128.565 27.2218ZM133.319 35.2221V15.7581H135.624V35.2221H133.319ZM140.449 35.2221V15.7581H142.754V35.2221H140.449ZM159.517 27.6341V28.7718H148.916C149.012 30.3478 149.482 31.5586 150.339 32.397C151.2 33.2199 152.399 33.6252 153.929 33.6252C154.811 33.6252 155.668 33.5191 156.49 33.3103C157.335 33.0911 158.16 32.7658 158.972 32.3327V34.5106C158.147 34.8585 157.302 35.1247 156.426 35.3178C155.565 35.4935 154.682 35.5839 153.789 35.5839C151.554 35.5839 149.784 34.9333 148.463 33.6304C147.158 32.3379 146.506 30.5809 146.506 28.3595C146.506 26.058 147.126 24.2367 148.372 22.9025C149.613 21.5456 151.292 20.8672 153.394 20.8672C155.283 20.8672 156.769 21.476 157.865 22.6989C158.966 23.9062 159.517 25.5518 159.517 27.6341ZM148.98 26.9713H157.212C157.191 25.7119 156.832 24.7012 156.137 23.9445C155.452 23.1965 154.542 22.8224 153.403 22.8224C152.118 22.8224 151.087 23.186 150.306 23.9114C149.536 24.6386 149.099 25.6579 148.98 26.9713ZM171.338 20.9907L171.354 23.3565C171.092 23.2069 170.808 23.1008 170.498 23.026C170.188 22.9512 169.862 22.9146 169.503 22.9146C168.198 22.9146 167.193 23.3426 166.487 24.1915C165.792 25.0352 165.443 26.2477 165.443 27.8324V35.2169H163.138V21.2099H165.443V23.3878C165.929 22.5337 166.562 21.904 167.342 21.4917C168.123 21.0707 169.064 20.862 170.172 20.862C170.332 20.862 170.508 20.8776 170.707 20.9107C170.894 20.9211 171.108 20.9489 171.338 20.9907ZM185.779 21.2099L179.618 36.5146C178.966 38.1863 178.329 39.2805 177.708 39.7937C177.088 40.3016 176.259 40.5521 175.227 40.5521H173.377V38.6299H174.736C175.366 38.6299 175.865 38.4751 176.222 38.1707C176.57 37.8767 176.956 37.1669 177.377 36.0397L177.806 34.9977L172.115 21.2099H174.565L178.956 32.157L183.331 21.2099H185.779Z" fill="white"/>
<path d="M45.3555 9.98106V0.342108H51.4524V1.43108H46.6484V4.28745H51.2485V5.39208H46.6484V8.87818H51.5796V9.9828H45.3555V9.98106ZM56.2598 4.83716L53.2593 0.342108H54.6655L57.0666 3.92562L59.4677 0.342108H60.8739L57.7793 4.96588L61.0795 9.97932H59.6733L56.9725 5.87916L54.2229 9.97932H52.8167L56.2598 4.83716ZM65.7389 1.41542H64.0975V5.03025H65.7389C66.3487 5.03025 66.8244 4.87543 67.1625 4.571C67.4883 4.25614 67.6538 3.80211 67.6538 3.21414C67.6538 2.64878 67.4883 2.20519 67.1625 1.89033C66.8244 1.57546 66.3487 1.41542 65.7389 1.41542ZM62.8028 9.98106V0.342108H65.7389C66.8244 0.342108 67.6434 0.58217 68.2045 1.06751C68.7498 1.56329 69.0286 2.27477 69.0286 3.21414C69.0286 4.16916 68.7551 4.89108 68.2045 5.37642C67.6486 5.86176 66.8244 6.10182 65.7389 6.10182H64.0975V9.98454H62.8028V9.98106ZM70.7816 9.98106V0.342108H72.0919V8.8747H76.7983V9.97932H70.7816V9.98106ZM81.6197 1.22755C80.6736 1.22755 79.9138 1.58068 79.3458 2.28521C78.8004 2.98973 78.5216 3.95172 78.5216 5.17463C78.5216 6.38189 78.7952 7.34735 79.3458 8.06406C79.9121 8.76858 80.6718 9.12172 81.6197 9.12172C82.5659 9.12172 83.3151 8.76858 83.8605 8.06406C84.4164 7.34909 84.7004 6.38711 84.7004 5.17463C84.7004 3.95693 84.4216 2.99147 83.8605 2.28521C83.3151 1.57546 82.5659 1.22755 81.6197 1.22755ZM81.6197 0.171631C82.9684 0.171631 84.0487 0.625658 84.8607 1.52849C85.6744 2.43133 86.0752 3.64903 86.0752 5.16941C86.0752 6.69676 85.6692 7.90924 84.8607 8.81033C84.047 9.71317 82.9667 10.1672 81.6197 10.1672C80.2606 10.1672 79.1698 9.71317 78.3456 8.81033C77.5319 7.9075 77.1311 6.6898 77.1311 5.16941C77.1311 3.64207 77.5371 2.42959 78.3456 1.52849C79.1698 0.618699 80.2606 0.171631 81.6197 0.171631ZM92.6966 5.45122C92.9806 5.5469 93.2524 5.75043 93.5208 6.06529C93.7822 6.36972 94.0505 6.79765 94.3293 7.34214L95.6553 9.9741H94.2491L93.0189 7.49696C92.6931 6.8568 92.3829 6.42886 92.0885 6.22011C91.7835 6.01137 91.3723 5.90525 90.8583 5.90525H89.4347V9.9741H88.1244V0.342108H91.0761C92.1826 0.342108 93.0068 0.571732 93.5574 1.0362C94.0923 1.49022 94.3659 2.18431 94.3659 3.11846C94.3659 3.72731 94.2213 4.23526 93.9372 4.63537C93.6428 5.03025 93.2368 5.30858 92.6966 5.45122ZM91.0709 1.41542H89.4295V4.8389H91.0709C91.7016 4.8389 92.1773 4.68929 92.4945 4.39531C92.8203 4.10132 92.9858 3.67512 92.9858 3.11846C92.9858 2.5531 92.8203 2.12517 92.4945 1.84162C92.1773 1.55981 91.7016 1.41542 91.0709 1.41542ZM97.3281 9.98106V0.342108H103.425V1.43108H98.6384V4.28745H103.239V5.39208H98.6384V8.87818H103.554V9.9828H97.3281V9.98106ZM109.903 9.98106V0.342108H111.214V9.98106H109.903ZM112.481 1.43108V0.342108H120.648V1.43108H117.218V9.97932H115.908V1.43108H112.481ZM130.036 1.22755C129.09 1.22755 128.335 1.58068 127.779 2.28521C127.224 2.98973 126.94 3.95172 126.94 5.17463C126.94 6.38189 127.218 7.34735 127.779 8.06406C128.335 8.76858 129.09 9.12172 130.036 9.12172C130.982 9.12172 131.737 8.76858 132.292 8.06406C132.838 7.34909 133.117 6.38711 133.117 5.17463C133.117 3.95693 132.843 2.99147 132.292 2.28521C131.737 1.57546 130.982 1.22755 130.036 1.22755ZM130.036 0.171631C131.395 0.171631 132.481 0.625658 133.293 1.52849C134.105 2.43133 134.507 3.64903 134.507 5.16941C134.507 6.69676 134.101 7.90924 133.293 8.81033C132.484 9.71143 131.393 10.1672 130.036 10.1672C128.677 10.1672 127.591 9.71317 126.779 8.81033C125.966 7.9075 125.565 6.6898 125.565 5.16941C125.565 3.64207 125.971 2.42959 126.779 1.52849C127.591 0.618699 128.677 0.171631 130.036 0.171631ZM136.544 9.98106V0.342108H138.299L142.583 8.40501V0.342108H143.862V9.98106H142.092L137.807 1.91816V9.98106H136.544Z" fill="white"/>
<path d="M40.2461 0.143799H0.617188V39.7034H40.2461V0.143799Z" fill="url(#paint0_linear_155_20)"/>
<path d="M18.4007 25.771C18.3728 25.8632 18.2665 25.8284 18.195 25.8284C17.7925 25.8319 17.39 25.8319 16.9858 25.8319H15.8357C15.1091 25.8319 14.3808 25.8336 13.6524 25.8319C11.7706 25.825 10.1832 24.4855 9.85036 22.6363C9.75278 22.0901 9.79112 21.5543 9.91832 21.0168C9.95491 20.8637 10.0142 20.848 10.1483 20.9211C11.7113 21.7683 13.2691 22.6259 14.8077 23.5183C15.9368 24.1724 17.0607 24.8334 18.1515 25.5501C18.1898 25.5745 18.2299 25.5971 18.2647 25.6266C18.3188 25.6701 18.425 25.691 18.4007 25.771Z" fill="white"/>
<path d="M11.8946 34.9612C11.8981 35.1438 11.8371 35.2169 11.6489 35.2117C11.0861 35.1995 11.161 35.2604 11.1575 34.7246C11.1541 34.4063 11.1541 34.0897 11.1575 33.7713C11.161 33.6148 11.0931 33.5434 10.938 33.5434C10.4449 33.5452 9.95176 33.5452 9.4569 33.5434C9.28788 33.5434 9.23212 33.6269 9.23386 33.787C9.23909 34.1888 9.23038 34.5907 9.23735 34.9925C9.24083 35.1525 9.17811 35.2117 9.01954 35.2099C8.40271 35.1995 8.50377 35.283 8.50028 34.7002C8.49506 33.6443 8.49854 32.5867 8.49854 31.5308C8.49854 31.2455 8.49854 31.2437 8.77559 31.2455C9.30182 31.2489 9.22864 31.1881 9.23386 31.6977C9.23735 32.0091 9.23909 32.3205 9.23212 32.6319C9.22864 32.8006 9.28439 32.8824 9.46561 32.8807C9.95176 32.8737 10.4397 32.8754 10.9258 32.8807C11.0966 32.8824 11.1541 32.8076 11.1523 32.6441C11.1471 32.2492 11.1558 31.8526 11.1488 31.4577C11.1454 31.2976 11.2046 31.2402 11.3649 31.242C11.9783 31.2542 11.8807 31.1689 11.8859 31.7517C11.8911 32.244 11.8859 32.738 11.8859 33.2303C11.8911 33.8078 11.8859 34.3854 11.8946 34.9612Z" fill="white"/>
<path d="M18.9287 24.9953C18.8712 25.0475 18.7946 24.9779 18.7336 24.9466C18.3119 24.7326 17.8867 24.5187 17.4703 24.296C16.1878 23.6106 14.9211 22.8974 13.7275 22.0607C13.1856 21.6797 12.6628 21.2744 12.2011 20.796C11.6365 20.215 11.3403 19.5278 11.3385 18.5693C11.3298 17.9013 11.6748 17.209 12.0965 16.5462C12.323 16.1896 12.5879 15.8608 12.8859 15.5599C13.0479 15.3946 13.0601 15.3964 13.2082 15.5842C14.0829 16.6976 14.8984 17.8526 15.6703 19.0373C16.7611 20.7055 17.7491 22.4329 18.6186 24.2264C18.7092 24.4126 18.8015 24.5987 18.8834 24.79C18.9096 24.8544 19.0037 24.9275 18.9287 24.9953Z" fill="white"/>
<path d="M16.5415 32.6198H16.5328C16.5328 32.9956 16.538 33.3713 16.5328 33.7471C16.5223 34.4394 16.1285 35.0222 15.4525 35.1613C14.806 35.2953 14.1247 35.3423 13.595 34.7908C13.3336 34.5177 13.1925 34.1802 13.1855 33.808C13.1698 33.0234 13.182 32.2389 13.1768 31.4561C13.1751 31.2943 13.236 31.2386 13.3946 31.2421C14.0114 31.2543 13.9069 31.169 13.9139 31.7518C13.9208 32.3676 13.9226 32.9834 13.9156 33.5992C13.9069 34.3768 14.6387 34.7612 15.3113 34.469C15.7487 34.2794 15.8219 33.8758 15.8271 33.46C15.8358 32.7868 15.8341 32.1119 15.8253 31.4387C15.8236 31.2943 15.8637 31.2351 16.0083 31.2438C16.1372 31.2508 16.2679 31.2473 16.3986 31.2456C16.5154 31.2438 16.5502 31.296 16.5467 31.4143C16.5363 31.8162 16.5415 32.218 16.5415 32.6198Z" fill="white"/>
<path d="M25.3095 15.6487C25.3321 16.6141 25.0481 17.4335 24.7205 18.2406C24.1734 19.5906 23.4485 20.85 22.694 22.0921C22.2497 22.8227 21.7897 23.5463 21.3018 24.2509C21.2495 24.3257 21.2094 24.4613 21.1049 24.4335C21.0125 24.4109 21.0352 24.2735 21.03 24.19C20.9864 23.609 20.9272 23.0297 20.8941 22.4487C20.8348 21.4136 20.7651 20.3786 20.786 19.3418C20.8139 17.884 20.9045 16.4298 21.185 14.9946C21.3332 14.2379 21.537 13.4934 21.882 12.7958C21.9448 12.6705 22.0197 12.5766 22.1783 12.5957C23.0024 12.6932 23.7987 12.8741 24.4104 13.4864C25.0254 14.1039 25.3844 14.8311 25.3095 15.6487Z" fill="white"/>
<path d="M29.5909 18.7468C29.5543 19.6879 29.1483 20.4464 28.4513 21.0657C27.2055 22.1738 25.7731 23.0036 24.3286 23.8142C23.6264 24.2073 22.9155 24.5848 22.1941 24.9432C22.1331 24.9728 22.0634 25.0476 21.999 24.9919C21.9206 24.9241 22.0042 24.8475 22.0338 24.7831C22.8179 23.1079 23.7083 21.4901 24.6893 19.9193C25.6076 18.4476 26.5904 17.0247 27.6568 15.6574C27.8763 15.3756 27.8815 15.3686 28.1185 15.633C28.7266 16.3114 29.2441 17.0455 29.4742 17.9432C29.5421 18.2024 29.617 18.4668 29.5909 18.7468Z" fill="white"/>
<path d="M19.9984 22.9077C19.974 23.3461 19.9218 23.7845 19.8817 24.2228C19.8799 24.2489 19.8765 24.275 19.8695 24.2994C19.8521 24.3516 19.8625 24.4316 19.7928 24.4438C19.7249 24.4559 19.7005 24.3829 19.6691 24.3359C19.2527 23.701 18.8257 23.0747 18.425 22.4293C17.775 21.3821 17.1599 20.314 16.6215 19.2042C16.2068 18.35 15.8444 17.475 15.6579 16.5426C15.4401 15.4502 15.6109 14.4343 16.395 13.5923C16.7871 13.1713 17.2802 12.8965 17.8465 12.7625C18.0869 12.7069 18.3274 12.6564 18.5696 12.6112C18.871 12.5555 18.9442 12.6008 19.0732 12.8756C19.4861 13.7541 19.6935 14.6882 19.8399 15.6381C20.0472 16.9793 20.1256 18.3292 20.1187 19.7539C20.1309 20.7611 20.0577 21.8344 19.9984 22.9077Z" fill="white"/>
<path d="M18.1987 26.5401C17.3344 27.1385 16.4579 27.7178 15.5274 28.2136C14.4471 28.7894 13.5236 28.5024 12.7308 27.8117C12.3858 27.5108 12.0983 27.1594 11.8613 26.7697C11.7672 26.6149 11.7864 26.5819 11.9658 26.5766C12.0756 26.5732 12.1871 26.5766 12.2969 26.5766C12.2969 26.5732 12.2969 26.5714 12.2969 26.568C13.4905 26.5314 14.6841 26.5001 15.8777 26.4531C16.6304 26.4236 17.3814 26.3836 18.1342 26.3818C18.1899 26.3818 18.2649 26.3575 18.2875 26.427C18.3049 26.4862 18.2405 26.5123 18.1987 26.5401Z" fill="white"/>
<path d="M31.058 22.6433C30.7723 24.115 29.9132 25.1082 28.5018 25.6197C27.9861 25.8076 27.4442 25.8145 26.9075 25.8249C26.2262 25.8389 25.5431 25.8284 24.8618 25.8284V25.8302C24.1404 25.8302 23.4208 25.8302 22.6994 25.8284C22.6332 25.8284 22.5339 25.8615 22.5112 25.7762C22.4903 25.6962 22.5862 25.6649 22.6419 25.6284C23.6961 24.9395 24.773 24.2889 25.862 23.6557C27.2926 22.8225 28.7388 22.0205 30.1903 21.2238C30.3837 21.1177 30.5823 21.0203 30.7705 20.9054C30.9064 20.8237 30.9622 20.862 31.0005 21.0046C31.1399 21.5456 31.1626 22.097 31.058 22.6433Z" fill="white"/>
<path d="M30.4483 35.1804C29.6171 35.1734 28.7842 35.1734 27.953 35.1804C27.7858 35.1821 27.723 35.1265 27.7248 34.956C27.7317 34.3732 27.7283 33.7887 27.7283 33.2042C27.7283 32.6337 27.7335 32.0631 27.7248 31.4925C27.7213 31.3133 27.7718 31.2385 27.9652 31.2403C28.7703 31.249 29.577 31.2472 30.382 31.242C30.5476 31.2403 30.6155 31.2924 30.612 31.4647C30.6033 31.9657 30.6504 31.9013 30.1729 31.903C29.6851 31.9065 29.1989 31.9083 28.711 31.9013C28.5228 31.8978 28.4496 31.9691 28.4618 32.1535C28.4706 32.277 28.4618 32.4006 28.4636 32.5241C28.4653 32.785 28.4827 32.8041 28.7371 32.8059C29.0752 32.8076 29.4132 32.8111 29.7513 32.8041C29.9081 32.8007 29.9882 32.8441 29.9516 33.0164C29.9377 33.079 29.9464 33.1451 29.9482 33.2112C29.9551 33.46 29.9569 33.4617 29.7147 33.4617C29.3766 33.4634 29.0386 33.4687 28.7006 33.46C28.5211 33.4565 28.4549 33.5295 28.4618 33.7035C28.4706 33.8914 28.4618 34.0792 28.4636 34.2671C28.4653 34.5141 28.5002 34.5507 28.7441 34.5524C29.2965 34.5541 29.8488 34.5524 30.4012 34.5524C30.6817 34.5524 30.6852 34.5559 30.687 34.8342C30.687 34.8673 30.6835 34.9003 30.687 34.9316C30.7096 35.1108 30.6399 35.1821 30.4483 35.1804Z" fill="white"/>
<path d="M32.4366 31.7727C32.4436 32.8216 32.4383 33.8723 32.4383 34.923C32.4383 35.1683 32.4279 35.177 32.1891 35.1788C31.7344 35.1822 31.7344 35.1822 31.7344 34.7299V33.213H31.7239C31.7239 32.6042 31.7257 31.9953 31.7222 31.3848C31.7222 31.2943 31.7466 31.2491 31.8389 31.2473C31.8511 31.2473 31.865 31.2456 31.8772 31.2456C32.5516 31.2525 32.4331 31.1638 32.4366 31.7727Z" fill="white"/>
<path d="M29.0265 26.8098C28.6327 27.4239 28.1622 27.9579 27.4896 28.2884C26.8553 28.5998 26.228 28.6224 25.5816 28.311C24.5588 27.817 23.6387 27.1629 22.6995 26.5349C22.6595 26.5071 22.5967 26.4827 22.6229 26.4184C22.6438 26.3679 22.7013 26.3836 22.7449 26.3818C22.8616 26.3801 22.9783 26.3818 23.0951 26.3818C23.0951 26.3836 23.0951 26.3871 23.0951 26.3888C24.3462 26.4271 25.599 26.4549 26.8501 26.5054C27.5314 26.5315 28.211 26.5749 28.8923 26.5784C29.1397 26.5767 29.1571 26.6045 29.0265 26.8098Z" fill="white"/>
<path d="M21.1382 34.9875C20.6416 33.8759 20.1346 32.7678 19.6693 31.6423C19.5317 31.31 19.3592 31.2004 19.0211 31.2387C18.8643 31.2561 18.7789 31.3031 18.7162 31.4475C18.406 32.1676 18.0872 32.8826 17.77 33.5993C17.5575 34.0794 17.3431 34.5578 17.1323 35.0379C17.1114 35.0832 17.0504 35.1719 17.141 35.1788C17.3518 35.1962 17.5679 35.1875 17.7787 35.1736C17.845 35.1701 17.8659 35.0832 17.8903 35.024C17.9635 34.8588 18.0384 34.6935 18.1046 34.523C18.1621 34.3752 18.2632 34.3178 18.42 34.3195C18.7964 34.3247 19.1727 34.3178 19.5491 34.3212C20.1537 34.3282 20.044 34.2325 20.2862 34.8153C20.4674 35.2484 20.4378 35.1684 20.8159 35.1771C20.8803 35.1771 20.9466 35.1736 21.011 35.1771C21.1696 35.1875 21.2079 35.1423 21.1382 34.9875ZM19.5979 33.695C19.4411 33.6985 19.286 33.695 19.1309 33.695C18.9811 33.695 18.8329 33.695 18.6831 33.695C18.542 33.6933 18.4914 33.6271 18.5472 33.4949C18.7075 33.1192 18.8695 32.7452 19.0333 32.3694C19.0542 32.3225 19.0751 32.2685 19.1414 32.272C19.2023 32.2755 19.2285 32.3225 19.2494 32.3712C19.4114 32.7382 19.5735 33.107 19.7338 33.4741C19.7913 33.6115 19.753 33.6915 19.5979 33.695Z" fill="white"/>
<path d="M26.855 31.4351C26.5606 32.2666 26.2748 33.0998 25.9855 33.9331C25.8671 34.2758 25.7416 34.6167 25.6301 34.9629C25.5813 35.116 25.5011 35.1838 25.3356 35.1786C24.8442 35.1647 24.9418 35.2343 24.7867 34.7889C24.548 34.1036 24.2919 33.4251 24.0828 32.7293C24.0671 32.6771 24.0462 32.6249 23.9817 32.6249C23.8946 32.6249 23.8876 32.7015 23.8667 32.7606C23.6158 33.4825 23.3596 34.2045 23.1209 34.9316C23.0599 35.1177 22.9711 35.1873 22.7742 35.1803C22.4013 35.1682 22.403 35.1769 22.2828 34.8324C21.8942 33.7261 21.5057 32.6197 21.1153 31.5116C21.1031 31.4751 21.0962 31.4351 21.0788 31.4003C21.0143 31.2681 21.0788 31.2402 21.1955 31.2454C21.2739 31.2489 21.3523 31.2454 21.429 31.2454C21.4813 31.2454 21.5335 31.2524 21.5841 31.2437C21.7723 31.2141 21.8489 31.3168 21.8995 31.4803C22.1382 32.2474 22.3821 33.0128 22.6243 33.7783C22.6417 33.8339 22.6574 33.8983 22.7324 33.8983C22.8055 33.8983 22.8212 33.8357 22.8404 33.78C23.1 32.992 23.3631 32.2057 23.6193 31.4159C23.6576 31.2994 23.7134 31.2472 23.8388 31.242C24.2692 31.2228 24.2779 31.2159 24.4156 31.6194C24.6613 32.3309 24.8948 33.0442 25.1317 33.7574C25.1509 33.8148 25.1474 33.9018 25.2363 33.8965C25.3147 33.8913 25.3234 33.8148 25.3443 33.7522C25.5935 32.9746 25.8461 32.197 26.0936 31.4194C26.1319 31.2959 26.1999 31.2367 26.3323 31.2437C26.463 31.2507 26.5919 31.2489 26.7226 31.2437C26.8707 31.242 26.9056 31.2907 26.855 31.4351Z" fill="white"/>
<path d="M30.2393 4.97282C30.0407 5.22679 29.8455 5.48251 29.6451 5.73301C28.1361 7.61174 26.2194 8.90424 23.9263 9.63312C22.2431 10.1672 20.5216 10.2976 18.7686 10.0663C16.9199 9.82274 15.2314 9.1617 13.6859 8.13188C12.9331 7.63088 12.2448 7.04986 11.6437 6.37491C11.2882 5.97481 10.9293 5.57645 10.6296 5.12938C10.5912 5.07371 10.5686 4.99891 10.4937 4.97282C10.3455 4.72406 10.1957 4.47704 10.0511 4.22654C9.89773 3.95865 9.9622 3.69771 10.2044 3.55855C10.4257 3.43156 10.6784 3.51332 10.8317 3.7586C10.9746 3.98822 11.1018 4.22654 11.2743 4.43703C11.5566 4.91367 11.9172 5.32943 12.2919 5.73301C13.7521 7.3021 15.5172 8.3702 17.5925 8.91468C18.9185 9.2626 20.2654 9.34957 21.628 9.18953C24.3254 8.87293 26.5819 7.69524 28.4393 5.73301C28.7826 5.36944 29.0945 4.97977 29.3803 4.56924C29.4081 4.52923 29.4569 4.49444 29.4482 4.43529C29.6207 4.2335 29.7532 4.00561 29.8873 3.77773C29.9692 3.63857 30.0772 3.53071 30.2463 3.5081C30.4292 3.48374 30.5791 3.54985 30.6836 3.70119C30.7882 3.85253 30.8004 4.01779 30.708 4.17783C30.5564 4.44399 30.3961 4.70666 30.2393 4.97282Z" fill="white"/>
<path d="M30.239 4.9728C30.3959 4.70839 30.5579 4.44397 30.7113 4.17608C30.8036 4.01604 30.7914 3.85078 30.6869 3.69943C30.5823 3.54809 30.4325 3.48373 30.2495 3.50634C30.0805 3.52896 29.9725 3.63681 29.8906 3.77598C29.7564 4.00386 29.624 4.23174 29.4515 4.43353C29.3365 4.36917 29.2946 4.2474 29.272 4.13781C29.1343 3.4385 29.5177 2.84531 30.1885 2.71658C30.9082 2.57915 31.5442 3.14277 31.5442 3.83686C31.5442 4.47702 31.0807 4.91713 30.4865 5.01455C30.3976 5.03021 30.3209 4.9815 30.239 4.9728Z" fill="#D5313E"/>
<path d="M11.2741 4.43704C11.1016 4.22655 10.9744 3.98823 10.8316 3.75861C10.6765 3.51159 10.4256 3.43157 10.2043 3.55856C9.96032 3.69773 9.89759 3.95866 10.0509 4.22655C10.1938 4.47705 10.3454 4.72407 10.4935 4.97283C9.81395 5.05807 9.30167 4.60752 9.18841 3.98301C9.09431 3.46984 9.58569 2.78619 10.1049 2.72357C10.7636 2.64529 11.2062 2.90448 11.4432 3.50985C11.5512 3.78992 11.4623 4.2857 11.2741 4.43704Z" fill="#D5313E"/>
<defs>
<linearGradient id="paint0_linear_155_20" x1="20.4197" y1="39.6897" x2="20.4197" y2="0.129323" gradientUnits="userSpaceOnUse">
<stop stop-color="#D5313E"/>
<stop offset="0.438" stop-color="#D5313E"/>
<stop offset="0.5709" stop-color="#E3465D"/>
<stop offset="1" stop-color="#E3465D"/>
</linearGradient>
</defs>
</svg>
