<svg width="155" height="39" viewBox="0 0 155 39" fill="none" xmlns="http://www.w3.org/2000/svg">
<path d="M111.364 16.7616V20.3126H109.139V22.6414H111.364V30.5541C111.364 33.256 112.587 34.3368 115.662 34.3368C116.202 34.3368 116.717 34.2725 117.167 34.1953V31.8922C116.781 31.9308 116.537 31.9565 116.112 31.9565C114.735 31.9565 114.131 31.3132 114.131 29.8465V22.6414H117.167V20.3126H114.131V16.7616H111.364Z" fill="white"/>
<path d="M125.001 34.5298C129.092 34.5298 131.601 31.7893 131.601 27.2475C131.601 22.7315 129.079 19.9781 125.001 19.9781C120.909 19.9781 118.387 22.7315 118.387 27.2475C118.387 31.7893 120.896 34.5298 125.001 34.5298ZM125.001 32.0723C122.595 32.0723 121.244 30.3097 121.244 27.2475C121.244 24.2111 122.595 22.4356 125.001 22.4356C127.394 22.4356 128.757 24.2111 128.757 27.2475C128.757 30.2968 127.394 32.0723 125.001 32.0723Z" fill="white"/>
<path d="M133.747 34.2596H136.514V25.9866C136.514 24.0181 137.993 22.6929 140.091 22.6929C140.579 22.6929 141.403 22.7829 141.634 22.8601V20.1325C141.339 20.0553 140.811 20.0167 140.399 20.0167C138.572 20.0167 137.015 21.0203 136.617 22.397H136.411V20.2483H133.747V34.2596Z" fill="white"/>
<path d="M148.503 22.3326C150.549 22.3326 151.887 23.7608 151.951 25.9609H144.875C145.029 23.7736 146.457 22.3326 148.503 22.3326ZM151.938 30.4769C151.424 31.5706 150.278 32.1753 148.606 32.1753C146.393 32.1753 144.965 30.6185 144.875 28.161V28.0066H154.769V27.0417C154.769 22.6414 152.414 19.9781 148.516 19.9781C144.566 19.9781 142.057 22.8215 142.057 27.299C142.057 31.7764 144.514 34.5298 148.529 34.5298C151.732 34.5298 153.971 32.9858 154.602 30.4769H151.938Z" fill="white"/>
<path d="M93.2238 29.0854C93.4372 32.526 96.3043 34.7263 100.572 34.7263C105.132 34.7263 107.986 32.4193 107.986 28.7387C107.986 25.8449 106.359 24.2447 102.412 23.3245L100.292 22.8044C97.7845 22.2177 96.771 21.4309 96.771 20.0573C96.771 18.3237 98.3446 17.1902 100.705 17.1902C102.945 17.1902 104.492 18.2971 104.772 20.0707H107.679C107.506 16.8302 104.652 14.5498 100.745 14.5498C96.5443 14.5498 93.7439 16.8302 93.7439 20.2574C93.7439 23.0845 95.3308 24.7648 98.8114 25.5782L101.292 26.1783C103.839 26.7784 104.959 27.6586 104.959 29.1255C104.959 30.8324 103.199 32.0726 100.798 32.0726C98.2246 32.0726 96.4377 30.9124 96.1843 29.0854H93.2238Z" fill="white"/>
<path d="M64.5684 20.0167C62.6642 20.0167 61.0174 20.9688 60.1682 22.5642H59.9623V20.2483H57.299V38.9172H60.0653V32.1367H60.284C61.0174 33.6163 62.5999 34.4912 64.5942 34.4912C68.1324 34.4912 70.384 31.6992 70.384 27.2475C70.384 22.7958 68.1324 20.0167 64.5684 20.0167ZM63.7836 32.008C61.4677 32.008 60.0138 30.181 60.0138 27.2604C60.0138 24.3269 61.4677 22.4999 63.7965 22.4999C66.1381 22.4999 67.5405 24.2883 67.5405 27.2475C67.5405 30.2196 66.1381 32.008 63.7836 32.008Z" fill="white"/>
<path d="M80.0635 20.0167C78.1593 20.0167 76.5124 20.9688 75.6632 22.5642H75.4574V20.2483H72.7941V38.9172H75.5603V32.1367H75.779C76.5124 33.6163 78.095 34.4912 80.0892 34.4912C83.6274 34.4912 85.879 31.6992 85.879 27.2475C85.879 22.7958 83.6274 20.0167 80.0635 20.0167ZM79.2786 32.008C76.9627 32.008 75.5088 30.181 75.5088 27.2604C75.5088 24.3269 76.9627 22.4999 79.2915 22.4999C81.6332 22.4999 83.0356 24.2883 83.0356 27.2475C83.0356 30.2196 81.6332 32.008 79.2786 32.008Z" fill="white"/>
<path d="M52.3359 34.2596H55.5098L48.562 15.0165H45.3482L38.4004 34.2596H41.4675L43.2412 29.1521H50.5757L52.3359 34.2596ZM46.8017 18.5104H47.0284L49.8155 26.6451H44.0013L46.8017 18.5104Z" fill="white"/>
<path d="M40.2598 0.501916V9.78489H43.6114C46.3776 9.78489 47.9795 8.08011 47.9795 5.11445C47.9795 2.19382 46.3648 0.501916 43.6114 0.501916H40.2598ZM41.7008 1.81427H43.4506C45.3741 1.81427 46.5127 3.03656 46.5127 5.13375C46.5127 7.26311 45.3934 8.47253 43.4506 8.47253H41.7008V1.81427Z" fill="white"/>
<path d="M52.8854 9.91998C54.9311 9.91998 56.1856 8.54973 56.1856 6.27884C56.1856 4.02083 54.9247 2.64414 52.8854 2.64414C50.8397 2.64414 49.5788 4.02083 49.5788 6.27884C49.5788 8.54973 50.8332 9.91998 52.8854 9.91998ZM52.8854 8.69126C51.6824 8.69126 51.0069 7.80992 51.0069 6.27884C51.0069 4.76063 51.6824 3.87286 52.8854 3.87286C54.0819 3.87286 54.7638 4.76063 54.7638 6.27884C54.7638 7.80349 54.0819 8.69126 52.8854 8.69126Z" fill="white"/>
<path d="M66.8684 2.77924H65.4853L64.2372 8.12515H64.1279L62.6869 2.77924H61.3616L59.9206 8.12515H59.8177L58.5632 2.77924H57.1608L59.0908 9.78489H60.5125L61.9535 4.62554H62.0628L63.5103 9.78489H64.9449L66.8684 2.77924Z" fill="white"/>
<path d="M68.4612 9.78489H69.8443V5.687C69.8443 4.59337 70.4941 3.91146 71.5169 3.91146C72.5398 3.91146 73.0287 4.47114 73.0287 5.59694V9.78489H74.4118V5.24955C74.4118 3.58337 73.5498 2.64414 71.9866 2.64414C70.9315 2.64414 70.2367 3.11376 69.8958 3.89216H69.7929V2.77924H68.4612V9.78489Z" fill="white"/>
<path d="M76.5901 9.78489H77.9732V0.045166H76.5901V9.78489Z" fill="white"/>
<path d="M83.175 9.91998C85.2207 9.91998 86.4752 8.54973 86.4752 6.27884C86.4752 4.02083 85.2143 2.64414 83.175 2.64414C81.1293 2.64414 79.8684 4.02083 79.8684 6.27884C79.8684 8.54973 81.1229 9.91998 83.175 9.91998ZM83.175 8.69126C81.972 8.69126 81.2965 7.80992 81.2965 6.27884C81.2965 4.76063 81.972 3.87286 83.175 3.87286C84.3716 3.87286 85.0535 4.76063 85.0535 6.27884C85.0535 7.80349 84.3716 8.69126 83.175 8.69126Z" fill="white"/>
<path d="M90.5962 8.73629C89.8436 8.73629 89.2968 8.3696 89.2968 7.73916C89.2968 7.12158 89.7342 6.79349 90.6992 6.72916L92.4104 6.6198V7.20521C92.4104 8.07368 91.6384 8.73629 90.5962 8.73629ZM90.2424 9.90068C91.1624 9.90068 91.9279 9.50183 92.346 8.80062H92.4554V9.78489H93.7871V4.99866C93.7871 3.51904 92.7964 2.64414 91.0401 2.64414C89.4511 2.64414 88.3189 3.41611 88.1774 4.6191H89.5155C89.6699 4.12375 90.2038 3.8407 90.9758 3.8407C91.9215 3.8407 92.4104 4.25885 92.4104 4.99866V5.60337L90.5126 5.71273C88.8464 5.81566 87.9072 6.5426 87.9072 7.80349C87.9072 9.08368 88.8915 9.90068 90.2424 9.90068Z" fill="white"/>
<path d="M98.4807 9.90068C99.4456 9.90068 100.263 9.44393 100.681 8.67839H100.79V9.78489H102.115V0.045166H100.732V3.89216H100.629C100.25 3.12019 99.4392 2.66344 98.4807 2.66344C96.7116 2.66344 95.5729 4.06586 95.5729 6.27884C95.5729 8.49827 96.6987 9.90068 98.4807 9.90068ZM98.8731 3.90503C100.031 3.90503 100.758 4.82496 100.758 6.28528C100.758 7.75203 100.037 8.65909 98.8731 8.65909C97.7023 8.65909 97.001 7.76489 97.001 6.27884C97.001 4.80566 97.7087 3.90503 98.8731 3.90503Z" fill="white"/>
<path d="M111.084 9.91998C113.13 9.91998 114.385 8.54973 114.385 6.27884C114.385 4.02083 113.124 2.64414 111.084 2.64414C109.039 2.64414 107.778 4.02083 107.778 6.27884C107.778 8.54973 109.032 9.91998 111.084 9.91998ZM111.084 8.69126C109.881 8.69126 109.206 7.80992 109.206 6.27884C109.206 4.76063 109.881 3.87286 111.084 3.87286C112.281 3.87286 112.963 4.76063 112.963 6.27884C112.963 7.80349 112.281 8.69126 111.084 8.69126Z" fill="white"/>
<path d="M116.215 9.78489H117.599V5.687C117.599 4.59337 118.248 3.91146 119.271 3.91146C120.294 3.91146 120.783 4.47114 120.783 5.59694V9.78489H122.166V5.24955C122.166 3.58337 121.304 2.64414 119.741 2.64414C118.686 2.64414 117.991 3.11376 117.65 3.89216H117.547V2.77924H116.215V9.78489Z" fill="white"/>
<path d="M128.536 1.03586V2.8114H127.423V3.97579H128.536V7.93215C128.536 9.2831 129.147 9.82349 130.685 9.82349C130.955 9.82349 131.212 9.79132 131.437 9.75272V8.6012C131.244 8.6205 131.122 8.63336 130.91 8.63336C130.222 8.63336 129.919 8.31171 129.919 7.57833V3.97579H131.437V2.8114H129.919V1.03586H128.536Z" fill="white"/>
<path d="M133.294 9.78489H134.677V5.69343C134.677 4.63197 135.308 3.9179 136.44 3.9179C137.418 3.9179 137.939 4.48401 137.939 5.60337V9.78489H139.322V5.26241C139.322 3.59624 138.402 2.65057 136.909 2.65057C135.854 2.65057 135.115 3.12019 134.774 3.90503H134.664V0.045166H133.294V9.78489Z" fill="white"/>
<path d="M144.311 3.8214C145.334 3.8214 146.003 4.53547 146.035 5.63553H142.497C142.574 4.54191 143.289 3.8214 144.311 3.8214ZM146.029 7.89355C145.772 8.44037 145.199 8.74272 144.363 8.74272C143.256 8.74272 142.542 7.96432 142.497 6.7356V6.6584H147.444V6.17592C147.444 3.97579 146.267 2.64414 144.318 2.64414C142.343 2.64414 141.088 4.06586 141.088 6.30458C141.088 8.5433 142.317 9.91998 144.324 9.91998C145.926 9.91998 147.045 9.14801 147.361 7.89355H146.029Z" fill="white"/>
<path d="M23.3929 18.4662C23.4264 15.8606 24.8257 13.3952 27.0455 12.0305C25.6452 10.0305 23.2996 8.76241 20.8592 8.68606C18.2564 8.41286 15.7331 10.2435 14.4067 10.2435C13.0547 10.2435 11.0126 8.71319 8.81357 8.75843C5.94722 8.85104 3.27507 10.4807 1.88054 12.9866C-1.11716 18.1767 1.11885 25.8043 3.9904 29.9996C5.42709 32.0538 7.10618 34.3485 9.30323 34.2672C11.4532 34.178 12.2561 32.8962 14.8513 32.8962C17.4224 32.8962 18.1757 34.2672 20.4173 34.2154C22.7243 34.178 24.1779 32.152 25.5641 30.0783C26.5964 28.6145 27.3907 26.9967 27.9177 25.2849C25.2066 24.1382 23.396 21.4098 23.3929 18.4662Z" fill="white"/>
<path d="M19.1588 5.92706C20.4167 4.41704 21.0364 2.47616 20.8863 0.516602C18.9646 0.718443 17.1894 1.63691 15.9145 3.089C14.6679 4.50776 14.0191 6.41449 14.1418 8.29915C16.0642 8.31895 17.9541 7.42538 19.1588 5.92706Z" fill="white"/>
</svg>
