<svg width="25" height="24" viewBox="0 0 25 24" fill="none" xmlns="http://www.w3.org/2000/svg">
<path d="M5.60794 10.7075H6.22895H6.22877C7.14461 12.7239 8.96044 14.188 11.1251 14.6557V16.9555H9.41051C9.15632 16.9555 8.91248 17.0564 8.73278 17.2362C8.55311 17.4159 8.45222 17.6596 8.45222 17.9138V19.171H7.59607C7.43048 19.1689 7.2713 19.2341 7.15472 19.3517C7.03815 19.4692 6.97416 19.6291 6.97772 19.7945V23.0629C6.97772 23.4002 7.25116 23.6736 7.58841 23.6736H17.6005C17.7642 23.6765 17.9221 23.6134 18.0388 23.4984C18.1556 23.3836 18.2214 23.2267 18.2214 23.0629V19.7945C18.2214 19.4573 17.9479 19.1838 17.6107 19.1838H16.7469V17.9266C16.7469 17.6724 16.646 17.4286 16.4663 17.2489C16.2866 17.0692 16.0428 16.9683 15.7886 16.9683H14.074V14.6557C16.2385 14.188 18.0543 12.7238 18.9703 10.7075H19.5913H19.5911C20.8598 10.7075 22.0761 10.2036 22.9729 9.30627C23.8695 8.40914 24.3731 7.19241 24.3723 5.9238V3.01832C24.3723 2.81511 24.2916 2.6201 24.1477 2.47625C24.0041 2.33259 23.8091 2.25184 23.6057 2.25184H19.5911V0.78235C19.5911 0.579146 19.5104 0.384138 19.3667 0.240287C19.2228 0.0966195 19.0278 0.0158691 18.8244 0.0158691H6.37192C6.16872 0.0158691 5.97371 0.096615 5.82986 0.240287C5.68602 0.384133 5.60527 0.579141 5.60527 0.78235V2.25435H1.59088C1.3875 2.25435 1.19249 2.33509 1.04864 2.47894C0.90497 2.62261 0.82422 2.81762 0.82422 3.021V5.92379C0.823507 7.19277 1.32722 8.41 2.22457 9.30717C3.12188 10.2045 4.33898 10.7082 5.60796 10.7075H5.60794ZM19.591 7.82774V4.67434H21.9522V5.92388C21.9515 6.55009 21.7025 7.15024 21.2599 7.59283C20.8171 8.03542 20.217 8.28442 19.591 8.28516H19.5756C19.5833 8.13435 19.591 7.98106 19.591 7.82779V7.82774ZM9.60987 5.69143L11.3348 5.43582C11.4319 5.42174 11.5161 5.36042 11.5596 5.27237L12.3262 3.71107C12.3765 3.60875 12.4806 3.54387 12.5945 3.54387C12.7086 3.54387 12.8127 3.60875 12.863 3.71107L13.6296 5.27237H13.6294C13.6729 5.36042 13.7571 5.42174 13.8544 5.43582L15.5793 5.69143C15.6925 5.7073 15.7866 5.78644 15.8219 5.89499C15.8572 6.00373 15.8276 6.12315 15.7455 6.20248L14.4984 7.41884C14.4303 7.48533 14.3981 7.58016 14.4114 7.67445L14.7054 9.39172V9.39154C14.7244 9.50384 14.6781 9.61703 14.5858 9.68387C14.4936 9.75054 14.3715 9.75909 14.271 9.70597L12.7376 8.89582C12.6505 8.85001 12.5464 8.85001 12.4592 8.89582L10.9259 9.70597C10.8252 9.75909 10.7033 9.75054 10.6109 9.68387C10.5188 9.61703 10.4724 9.50384 10.4915 9.39154L10.7854 7.67428L10.7853 7.67445C10.7986 7.58016 10.7664 7.48533 10.6985 7.41884L9.45142 6.20248C9.3696 6.12423 9.33895 6.00622 9.37263 5.89802C9.40614 5.78965 9.49794 5.70979 9.60988 5.69143H9.60987ZM3.24695 4.66937H5.60804L5.60821 7.82779C5.60821 7.98108 5.60821 8.13438 5.62354 8.28516H5.60821C4.98219 8.28444 4.38204 8.03543 3.93927 7.59283C3.49668 7.15023 3.24767 6.55004 3.24694 5.92388L3.24695 4.66937Z" fill="white"/>
</svg>
