<svg width="1440" height="1070" viewBox="0 0 1440 1070" fill="none" xmlns="http://www.w3.org/2000/svg">
<g clip-path="url(#clip0_157_110)">
<g opacity="0.4">
<mask id="mask0_157_110" style="mask-type:alpha" maskUnits="userSpaceOnUse" x="-255" y="-110" width="2560" height="1588">
<path d="M1401.89 1477.99L2304.85 739.377L1442.19 78.3026L1076.33 -109.084L109.977 -65.9864L-254.833 271.619L636.885 952.978L1401.89 1477.99Z" fill="url(#paint0_linear_157_110)"/>
</mask>
<g mask="url(#mask0_157_110)">
</g>
<mask id="mask1_157_110" style="mask-type:alpha" maskUnits="userSpaceOnUse" x="-369" y="-347" width="2840" height="1746">
<path d="M-368.75 217.219C187.934 -24.5756 898.162 -332.961 924.227 -346.271L2470.64 835.339L1177.67 1398.83L-368.75 217.219Z" fill="url(#paint1_linear_157_110)"/>
</mask>
<g mask="url(#mask1_157_110)">
<path d="M1397.41 227.322C1571.82 360.592 1519.34 559.424 1340.81 637.226C1162.29 715.028 857.408 763.181 670.275 620.193C577.542 549.336 345.608 515.31 324.334 392.382C302.677 267.246 571.662 180.62 661.718 141.373C840.241 63.5712 1222.99 94.0521 1397.41 227.322Z" fill="#9180FF" fill-opacity="0.3"/>
<g filter="url(#filter0_f_157_110)">
<path d="M1380.03 232.385C1567.08 375.314 1529.79 552.2 1376.34 619.076C1222.89 685.952 950.932 719.788 763.876 576.859C671.18 506.031 452.061 466.476 418.347 349.023C384.027 229.46 618.809 157.728 696.218 123.993C849.67 57.1167 1192.97 89.4561 1380.03 232.385Z" fill="#9180FF" fill-opacity="0.3"/>
</g>
<g filter="url(#filter1_f_157_110)">
<path d="M1385.68 236.719C1595.33 396.915 1534.35 603.529 1345.17 685.979C1155.98 768.428 828.601 816.188 618.947 655.992C515.054 576.608 239.896 545.16 210.673 409.786C180.925 271.98 483.527 174.386 578.963 132.795C768.151 50.3449 1176.03 76.523 1385.68 236.719Z" fill="#9180FF" fill-opacity="0.3"/>
</g>
<g filter="url(#filter2_f_157_110)">
<path d="M1387.48 264.97C1599.92 482.979 1568.95 753.746 1347.53 850.242C1126.11 946.739 755.364 950.671 503.926 758.548C379.326 663.342 -22.1721 646.124 -59.9447 484.958C-98.396 320.896 237.859 215.469 349.555 166.791C570.975 70.2941 1141.38 12.4202 1387.48 264.97Z" fill="#9180FF" fill-opacity="0.3"/>
</g>
<g filter="url(#filter3_f_157_110)">
<path d="M1385.07 370.665C1655.81 577.531 1603.6 879.947 1387.12 974.293C1170.63 1068.64 795.141 1062.54 524.407 855.675C390.246 753.163 144.731 664.7 93.14 495.925C40.6224 324.117 372.775 223.633 481.98 176.04C698.464 81.6949 1114.34 163.799 1385.07 370.665Z" fill="#9180FF" fill-opacity="0.3"/>
</g>
<g filter="url(#filter4_f_157_110)">
<path d="M1228.81 312.704C1473.62 499.759 1392.59 787.954 1171.17 884.451C949.746 980.948 582.466 987.528 337.66 800.473C216.347 707.778 10.152 620.898 -23.7157 462.715C-58.1918 301.691 277.159 195.573 388.855 146.895C610.275 50.3985 984.007 125.649 1228.81 312.704Z" fill="#9180FF" fill-opacity="0.3"/>
</g>
</g>
<mask id="mask2_157_110" style="mask-type:alpha" maskUnits="userSpaceOnUse" x="-377" y="-186" width="2683" height="1555">
<path d="M2305.89 311.042L793.925 -185.839L-137.756 358.885L-376.872 587.994L-82.607 1170.43L596.848 1368.94L1572.8 797.706L2305.89 311.042Z" fill="url(#paint2_linear_157_110)"/>
</mask>
<g mask="url(#mask2_157_110)">
<mask id="mask3_157_110" style="mask-type:alpha" maskUnits="userSpaceOnUse" x="-712" y="-291" width="2948" height="1698">
<path d="M485.721 1406.76C-72.6432 1088.23 -681.853 740.439 -711.477 725.639L1038.72 -290.143L2235.92 390.976L485.721 1406.76Z" fill="url(#paint3_linear_157_110)"/>
</mask>
<g mask="url(#mask3_157_110)">
<path d="M118.121 385.132C309.012 273.401 669.747 293.382 849.264 395.515C1028.78 497.648 1187.09 676.907 982.284 796.785C880.79 856.19 877.561 996.592 667.583 1016.31C453.832 1036.38 236.903 880.75 146.346 829.229C-33.1722 727.096 -72.7703 496.862 118.121 385.132Z" fill="#37FFFF" fill-opacity="0.5"/>
<g filter="url(#filter5_f_157_110)">
<path d="M131.211 395.22C335.938 275.391 637.914 278.078 777.285 357.37C916.657 436.662 1022.32 585.93 817.589 705.758C716.137 765.139 689.746 892.306 499.809 923.369C306.459 954.991 144.273 830.516 73.9671 790.516C-65.4044 711.224 -73.5151 515.048 131.211 395.22Z" fill="#37FFFF" fill-opacity="0.5"/>
</g>
<g filter="url(#filter6_f_157_110)">
<path d="M137.408 391.589C366.867 257.284 723.042 270.376 895.136 368.285C1067.23 466.195 1206.5 645.355 977.042 779.66C863.334 846.214 860.82 1004.14 640.026 1034.46C415.266 1065.32 197.264 905.196 110.451 855.805C-61.643 757.896 -92.0503 525.893 137.408 391.589Z" fill="#37FFFF" fill-opacity="0.5"/>
</g>
<g filter="url(#filter7_f_157_110)">
<path d="M220.2 408.015C550.163 268.747 1031.57 271.775 1254.23 398.449C1476.88 525.123 1573.79 746.226 1298.6 907.298C1162.23 987.117 1229.59 1227.79 956.698 1259.54C678.899 1291.86 288.582 1050.93 176.264 987.033C-46.3896 860.359 -162.044 569.35 220.2 408.015Z" fill="#37FFFF" fill-opacity="0.5"/>
</g>
<g filter="url(#filter8_f_157_110)">
<path d="M350.825 396.69C647.133 223.258 1210.25 224.773 1427.94 348.623C1645.63 472.473 1726.14 696.982 1429.84 870.414C1283 956.358 1187.8 1107.98 904.939 1148.41C617 1189.57 79.0238 983.453 -30.7903 920.976C-248.481 797.126 54.5176 570.122 350.825 396.69Z" fill="#37FFFF" fill-opacity="0.5"/>
</g>
<g filter="url(#filter9_f_157_110)">
<path d="M574.212 366.237C880.418 187.011 1437.44 199.646 1660.09 326.32C1882.75 452.994 1963.45 683.583 1657.24 862.808C1505.5 951.624 977.718 912.863 686.561 955.302C390.173 998.503 128.23 801.31 15.9124 737.409C-206.741 610.735 268.005 545.462 574.212 366.237Z" fill="#37FFFF" fill-opacity="0.5"/>
</g>
<g filter="url(#filter10_f_157_110)">
<path d="M308.492 480.897C576.423 324.074 1100.49 355.996 1323.14 482.67C1545.8 609.344 1646.5 828.227 1378.57 985.049C1245.8 1062.76 1143.82 1190.82 875.194 1220.07C601.747 1249.84 334.588 1055.7 222.27 991.799C-0.384106 865.125 40.5617 637.719 308.492 480.897Z" fill="#37FFFF" fill-opacity="0.5"/>
</g>
</g>
</g>
<mask id="mask4_157_110" style="mask-type:alpha" maskUnits="userSpaceOnUse" x="-630" y="65" width="2660" height="1068">
<path d="M-629.867 224.758L-336.174 1128.73L1201.75 1132.68L1613.58 1054.61L2029.15 445.465L1757.8 65.4137L461.906 126.259L-629.867 224.758Z" fill="url(#paint4_linear_157_110)"/>
</mask>
<g mask="url(#mask4_157_110)">
<mask id="mask5_157_110" style="mask-type:alpha" maskUnits="userSpaceOnUse" x="-660" y="111" width="2578" height="1083">
<path d="M1863.78 111C1922.35 533.415 1912.41 1069.85 1917.74 1090.77L-397.09 1193.78L-659.551 254.105L1863.78 111Z" fill="url(#paint5_linear_157_110)"/>
</mask>
<g mask="url(#mask5_157_110)">
<path d="M1056 931.124C802.532 943.025 568.093 801.763 548.971 666.149C529.85 530.534 607.362 347.747 879.314 334.979C1014.08 328.651 1164.93 230.313 1334.56 290.329C1507.24 351.422 1496.26 538.124 1505.91 606.535C1525.03 742.149 1309.47 919.223 1056 931.124Z" fill="#FF3CBD" fill-opacity="0.3"/>
<g filter="url(#filter11_f_157_110)">
<path d="M1057.4 919.374C785.556 932.138 574.447 823.833 559.602 718.546C544.757 613.26 627.839 470.275 899.68 457.511C1034.39 451.186 1187.64 370.387 1355.08 415.303C1525.53 461.025 1508.73 606.363 1516.22 659.475C1531.07 764.761 1329.24 906.61 1057.4 919.374Z" fill="#FF3CBD" fill-opacity="0.3"/>
</g>
<g filter="url(#filter12_f_157_110)">
<path d="M1049.18 919.757C744.499 934.063 506 799.288 487.669 669.282C469.339 539.276 560.237 363.268 864.918 348.963C1015.9 341.874 1184.79 230.868 1373.3 287.186C1565.19 344.516 1550.22 534.774 1559.47 600.356C1577.8 730.363 1353.86 905.452 1049.18 919.757Z" fill="#FF3CBD" fill-opacity="0.3"/>
</g>
<g filter="url(#filter13_f_157_110)">
<path d="M1007.9 878.947C626.763 861.357 288.888 689.587 265.172 521.386C241.456 353.185 406.745 162.386 772.149 145.229C953.224 136.727 1160.15 -57.5229 1387.09 16.1366C1618.11 91.1195 1639.73 399.342 1651.7 484.192C1675.41 652.393 1449.44 899.325 1007.9 878.947Z" fill="#FF3CBD" fill-opacity="0.3"/>
</g>
<g filter="url(#filter14_f_157_110)">
<path d="M903.367 840.946C509.923 859.419 112.553 659.931 89.3656 495.479C66.1783 331.028 246.69 143.595 640.135 125.121C835.106 115.967 1062.99 42.0911 1306.18 113.108C1553.73 185.401 1716.8 520.992 1728.5 603.949C1751.68 768.401 1296.81 822.473 903.367 840.946Z" fill="#FF3CBD" fill-opacity="0.3"/>
</g>
<g filter="url(#filter15_f_157_110)">
<path d="M712.881 783.813C306.292 802.904 -74.9891 597.686 -98.7052 429.485C-122.421 261.284 64.3868 69.4745 470.975 50.3842C672.46 40.9241 1005.39 254.352 1256.58 326.873C1512.28 400.696 1489.22 632.704 1501.18 717.553C1524.9 885.754 1119.47 764.723 712.881 783.813Z" fill="#FF3CBD" fill-opacity="0.3"/>
</g>
</g>
</g>
</g>
</g>
<defs>
<filter id="filter0_f_157_110" x="411.588" y="87.2514" width="1098.1" height="592.781" filterUnits="userSpaceOnUse" color-interpolation-filters="sRGB">
<feFlood flood-opacity="0" result="BackgroundImageFix"/>
<feBlend mode="normal" in="SourceGraphic" in2="BackgroundImageFix" result="shape"/>
<feGaussianBlur stdDeviation="1.67814" result="effect1_foregroundBlur_157_110"/>
</filter>
<filter id="filter1_f_157_110" x="196.878" y="75.4154" width="1332.24" height="698.43" filterUnits="userSpaceOnUse" color-interpolation-filters="sRGB">
<feFlood flood-opacity="0" result="BackgroundImageFix"/>
<feBlend mode="normal" in="SourceGraphic" in2="BackgroundImageFix" result="shape"/>
<feGaussianBlur stdDeviation="5.87347" result="effect1_foregroundBlur_157_110"/>
</filter>
<filter id="filter2_f_157_110" x="-79.7718" y="67.7636" width="1627.84" height="864.195" filterUnits="userSpaceOnUse" color-interpolation-filters="sRGB">
<feFlood flood-opacity="0" result="BackgroundImageFix"/>
<feBlend mode="normal" in="SourceGraphic" in2="BackgroundImageFix" result="shape"/>
<feGaussianBlur stdDeviation="8.39068" result="effect1_foregroundBlur_157_110"/>
</filter>
<filter id="filter3_f_157_110" x="42.242" y="91.846" width="1572.35" height="986.36" filterUnits="userSpaceOnUse" color-interpolation-filters="sRGB">
<feFlood flood-opacity="0" result="BackgroundImageFix"/>
<feBlend mode="normal" in="SourceGraphic" in2="BackgroundImageFix" result="shape"/>
<feGaussianBlur stdDeviation="22.6548" result="effect1_foregroundBlur_157_110"/>
</filter>
<filter id="filter4_f_157_110" x="-78.2121" y="52.7727" width="1508.85" height="950.058" filterUnits="userSpaceOnUse" color-interpolation-filters="sRGB">
<feFlood flood-opacity="0" result="BackgroundImageFix"/>
<feBlend mode="normal" in="SourceGraphic" in2="BackgroundImageFix" result="shape"/>
<feGaussianBlur stdDeviation="26.0111" result="effect1_foregroundBlur_157_110"/>
</filter>
<filter id="filter5_f_157_110" x="-30.891" y="297.256" width="966.658" height="634.984" filterUnits="userSpaceOnUse" color-interpolation-filters="sRGB">
<feFlood flood-opacity="0" result="BackgroundImageFix"/>
<feBlend mode="normal" in="SourceGraphic" in2="BackgroundImageFix" result="shape"/>
<feGaussianBlur stdDeviation="1.89102" result="effect1_foregroundBlur_157_110"/>
</filter>
<filter id="filter6_f_157_110" x="-39.8925" y="279.578" width="1150.47" height="772.032" filterUnits="userSpaceOnUse" color-interpolation-filters="sRGB">
<feFlood flood-opacity="0" result="BackgroundImageFix"/>
<feBlend mode="normal" in="SourceGraphic" in2="BackgroundImageFix" result="shape"/>
<feGaussianBlur stdDeviation="6.61856" result="effect1_foregroundBlur_157_110"/>
</filter>
<filter id="filter7_f_157_110" x="-48.302" y="284.578" width="1533.99" height="996.836" filterUnits="userSpaceOnUse" color-interpolation-filters="sRGB">
<feFlood flood-opacity="0" result="BackgroundImageFix"/>
<feBlend mode="normal" in="SourceGraphic" in2="BackgroundImageFix" result="shape"/>
<feGaussianBlur stdDeviation="9.45509" result="effect1_foregroundBlur_157_110"/>
</filter>
<filter id="filter8_f_157_110" x="-155.907" y="209.432" width="1829.83" height="995.424" filterUnits="userSpaceOnUse" color-interpolation-filters="sRGB">
<feFlood flood-opacity="0" result="BackgroundImageFix"/>
<feBlend mode="normal" in="SourceGraphic" in2="BackgroundImageFix" result="shape"/>
<feGaussianBlur stdDeviation="25.5288" result="effect1_foregroundBlur_157_110"/>
</filter>
<filter id="filter9_f_157_110" x="-168.282" y="104.639" width="2153.03" height="983.488" filterUnits="userSpaceOnUse" color-interpolation-filters="sRGB">
<feFlood flood-opacity="0" result="BackgroundImageFix"/>
<feBlend mode="normal" in="SourceGraphic" in2="BackgroundImageFix" result="shape"/>
<feGaussianBlur stdDeviation="63.3491" result="effect1_foregroundBlur_157_110"/>
</filter>
<filter id="filter10_f_157_110" x="19.7098" y="316.477" width="1578.28" height="965.292" filterUnits="userSpaceOnUse" color-interpolation-filters="sRGB">
<feFlood flood-opacity="0" result="BackgroundImageFix"/>
<feBlend mode="normal" in="SourceGraphic" in2="BackgroundImageFix" result="shape"/>
<feGaussianBlur stdDeviation="29.3108" result="effect1_foregroundBlur_157_110"/>
</filter>
<filter id="filter11_f_157_110" x="550.644" y="394.468" width="973.654" height="533.242" filterUnits="userSpaceOnUse" color-interpolation-filters="sRGB">
<feFlood flood-opacity="0" result="BackgroundImageFix"/>
<feBlend mode="normal" in="SourceGraphic" in2="BackgroundImageFix" result="shape"/>
<feGaussianBlur stdDeviation="3.65387" result="effect1_foregroundBlur_157_110"/>
</filter>
<filter id="filter12_f_157_110" x="459.843" y="245.727" width="1126.25" height="700.655" filterUnits="userSpaceOnUse" color-interpolation-filters="sRGB">
<feFlood flood-opacity="0" result="BackgroundImageFix"/>
<feBlend mode="normal" in="SourceGraphic" in2="BackgroundImageFix" result="shape"/>
<feGaussianBlur stdDeviation="12.7886" result="effect1_foregroundBlur_157_110"/>
</filter>
<filter id="filter13_f_157_110" x="226.404" y="-37.0422" width="1463.52" height="953.713" filterUnits="userSpaceOnUse" color-interpolation-filters="sRGB">
<feFlood flood-opacity="0" result="BackgroundImageFix"/>
<feBlend mode="normal" in="SourceGraphic" in2="BackgroundImageFix" result="shape"/>
<feGaussianBlur stdDeviation="18.2694" result="effect1_foregroundBlur_157_110"/>
</filter>
<filter id="filter14_f_157_110" x="-11.2668" y="-16.0808" width="1839.27" height="956.876" filterUnits="userSpaceOnUse" color-interpolation-filters="sRGB">
<feFlood flood-opacity="0" result="BackgroundImageFix"/>
<feBlend mode="normal" in="SourceGraphic" in2="BackgroundImageFix" result="shape"/>
<feGaussianBlur stdDeviation="49.3273" result="effect1_foregroundBlur_157_110"/>
</filter>
<filter id="filter15_f_157_110" x="-345.517" y="-194.73" width="2092.5" height="1247.78" filterUnits="userSpaceOnUse" color-interpolation-filters="sRGB">
<feFlood flood-opacity="0" result="BackgroundImageFix"/>
<feBlend mode="normal" in="SourceGraphic" in2="BackgroundImageFix" result="shape"/>
<feGaussianBlur stdDeviation="122.405" result="effect1_foregroundBlur_157_110"/>
</filter>
<linearGradient id="paint0_linear_157_110" x1="923.763" y1="429.097" x2="210.356" y2="130.236" gradientUnits="userSpaceOnUse">
<stop stop-color="#C4C4C4"/>
<stop offset="1" stop-color="#C4C4C4" stop-opacity="0"/>
</linearGradient>
<linearGradient id="paint1_linear_157_110" x1="1365.96" y1="237.03" x2="866.454" y2="935.109" gradientUnits="userSpaceOnUse">
<stop stop-color="#C4C4C4"/>
<stop offset="1" stop-color="#C4C4C4" stop-opacity="0"/>
</linearGradient>
<linearGradient id="paint2_linear_157_110" x1="714.566" y1="368.708" x2="566.415" y2="1189.82" gradientUnits="userSpaceOnUse">
<stop stop-color="#C4C4C4" stop-opacity="0.7"/>
<stop offset="0.943414" stop-color="#C4C4C4" stop-opacity="0"/>
</linearGradient>
<linearGradient id="paint3_linear_157_110" x1="324.895" y1="505.852" x2="624.654" y2="1137.92" gradientUnits="userSpaceOnUse">
<stop stop-color="#C4C4C4"/>
<stop offset="1" stop-color="#C4C4C4" stop-opacity="0"/>
</linearGradient>
<linearGradient id="paint4_linear_157_110" x1="616.041" y1="732.605" x2="1399.74" y2="509.043" gradientUnits="userSpaceOnUse">
<stop stop-color="#C4C4C4"/>
<stop offset="0.943414" stop-color="#C4C4C4" stop-opacity="0"/>
</linearGradient>
<linearGradient id="paint5_linear_157_110" x1="1024.47" y1="805.963" x2="1032.03" y2="246.462" gradientUnits="userSpaceOnUse">
<stop stop-color="#C4C4C4"/>
<stop offset="1" stop-color="#C4C4C4" stop-opacity="0"/>
</linearGradient>
<clipPath id="clip0_157_110">
<rect width="1440" height="1070" fill="white"/>
</clipPath>
</defs>
</svg>
