<svg width="1100" height="1007" viewBox="0 0 1100 1007" fill="none" xmlns="http://www.w3.org/2000/svg">
<g clip-path="url(#clip0_157_112)">
<mask id="mask0_157_112" style="mask-type:alpha" maskUnits="userSpaceOnUse" x="135" y="42" width="1291" height="1086">
<path d="M701.654 460.759C689.647 477.653 672.431 488.732 642.053 489.043C539.514 489.983 440.321 444.979 337.639 478.399C284.935 495.603 245.352 533.02 220.558 580.097C103.81 802.678 230.391 965.566 296.946 1009.09C365.131 1053.71 457.136 1004.43 513.827 962.671C583.702 911.243 650.493 850.372 737.547 827.704C829.468 803.779 1034.4 734.538 1116.09 679.948C1173.74 641.433 1245.81 559.855 1237.52 493.641C1229.23 427.427 1144.09 377.559 1088.93 337.131C1033.76 296.703 1163.9 56.4071 1094.83 45.914C1001.95 31.806 918.513 120.239 866.645 182.087C814.07 244.799 770.726 313.986 735.575 386.803C722.657 413.769 715.63 441.161 701.654 460.759Z" stroke="url(#paint0_linear_157_112)" stroke-opacity="0.2" stroke-width="3"/>
<path d="M284.221 1020.26C356.847 1067.81 454.95 1015.18 515.382 970.754C589.868 916.033 661.026 850.994 753.883 826.952C851.858 801.494 1052.34 744.449 1139.42 686.211C1200.95 645.14 1269.34 560.143 1260.49 489.472C1252.58 426.314 1176.19 377.939 1125.51 337.595C1073.32 296.018 1182.08 80.1273 1115.67 65.9386C1023.74 46.4089 937.592 118.627 879.251 171.068C820.658 223.669 771.362 285.454 730.665 353.016C715.604 378.052 706.066 403.819 690.688 423.075C677.682 439.576 660.246 451.071 631.391 453.778C587.899 457.801 545.577 455.986 503.981 455.633C468.498 455.29 433.441 456.188 398.245 463.569C381.174 467.129 364.09 472.76 346.46 480.528C298.607 501.78 260.938 540.381 235.266 589.12C197.346 661.508 180.081 728.594 177.922 788.356C173.75 900.362 232.753 986.61 284.221 1020.26Z" stroke="url(#paint1_linear_157_112)" stroke-opacity="0.2" stroke-width="3"/>
<path d="M271.514 1031.55C348.582 1082.04 452.8 1026.18 516.955 978.963C596.037 920.822 671.594 851.87 770.221 826.2C874.251 799.208 1070.42 754.343 1162.9 692.584C1228.18 648.973 1293 560.414 1283.63 485.541C1276.09 425.311 1208.3 378.445 1162.26 338.296C1113.04 295.443 1200.53 103.813 1136.69 86.3275C1045.7 61.2489 957.006 117.49 892.175 160.396C827.729 203.126 772.301 257.142 726.058 319.449C708.971 342.411 696.921 366.553 680.025 385.61C665.886 401.736 648.113 413.791 620.913 418.878C578.985 426.714 538.947 431.209 500.068 437.37C467.173 442.523 435.224 448.722 402.859 460.275C387.529 465.816 371.92 473.461 355.599 483.005C312.684 507.907 276.858 548.217 250.276 598.363C213.052 668.724 190.815 735.139 182.169 796.231C166.943 902.378 212.944 993.229 271.514 1031.55Z" stroke="url(#paint2_linear_157_112)" stroke-opacity="0.2" stroke-width="3"/>
<path d="M258.804 1042.84C340.446 1096.25 450.645 1037.19 518.674 987.284C602.352 925.721 682.424 852.712 786.721 825.686C896.789 797.032 1088.52 764.491 1186.4 699.211C1255.44 653.061 1316.71 561.067 1306.78 481.737C1299.62 424.564 1240.54 378.935 1199.01 338.997C1152.88 294.851 1218.84 127.516 1157.69 106.589C1067.62 75.8346 976.533 116.209 904.945 149.615C834.63 182.345 773.085 228.72 721.162 285.789C702.067 306.804 687.489 329.193 669.208 348.036C653.935 363.786 635.959 376.384 610.399 383.722C570.034 395.372 532.28 406.177 495.984 418.87C465.812 429.502 436.821 440.891 407.303 456.744C393.566 464.155 379.698 473.78 364.418 485.134C326.425 513.559 292.443 555.578 264.966 607.258C228.723 675.686 201.765 741.269 186.113 803.885C161.336 904.244 193.131 999.848 258.804 1042.84Z" stroke="url(#paint3_linear_157_112)" stroke-opacity="0.2" stroke-width="3"/>
<path d="M246.095 1054.13C332.179 1110.48 448.491 1048.19 520.244 995.493C608.668 930.621 692.989 853.588 803.057 824.934C919.179 794.746 1106.6 774.385 1209.72 705.473C1282.66 656.767 1340.22 561.227 1329.88 477.551C1323.1 423.434 1272.85 378.898 1235.6 339.46C1192.68 293.877 1237.23 150.82 1178.4 126.63C1089.21 89.9441 995.911 114.817 917.551 138.595C841.667 161.546 773.855 200.171 716.386 251.985C695.266 270.925 678.176 291.688 658.511 310.317C642.238 325.675 623.924 338.832 599.886 348.567C560.984 364.301 525.733 381.001 492.035 400.352C464.421 416.225 438.42 433.06 412.032 453.306C399.887 462.587 387.627 474.21 373.671 487.467C340.435 519.176 308.478 563.27 280.091 616.358C244.694 682.868 213.684 747.536 190.625 811.726C156.548 906.136 173.169 1006.36 246.095 1054.13Z" stroke="url(#paint4_linear_157_112)" stroke-opacity="0.2" stroke-width="3"/>
<path d="M233.389 1065.42C323.914 1124.7 446.341 1059.19 521.817 1003.7C614.837 935.41 703.541 854.336 819.278 824.326C941.454 792.604 1124.44 784.567 1233.08 711.99C1309.77 660.744 1363.78 561.769 1352.88 473.636C1346.49 422.575 1305.07 379.133 1272.22 340.178C1232.5 293.03 1255.52 174.268 1199.29 147.035C1111.1 104.275 1015.51 114.045 930.341 127.941C848.904 141.241 774.81 171.986 711.527 218.579C688.532 235.555 668.78 254.583 647.58 272.886C630.308 287.852 611.673 301.696 589.259 313.555C551.952 333.358 518.787 355.875 487.972 381.978C463.048 403.076 440.006 425.102 416.497 449.902C405.927 460.925 395.126 474.435 382.511 489.723C353.866 524.478 324.217 570.74 294.818 625.507C260.267 690.101 225.787 754.169 194.62 819.762C152.613 908.31 153.361 1012.97 233.389 1065.42Z" stroke="url(#paint5_linear_157_112)" stroke-opacity="0.2" stroke-width="3"/>
<path d="M220.797 1076.57C315.763 1138.79 444.171 1070.07 523.387 1011.91C621.002 940.199 714.105 855.212 835.613 823.574C963.827 790.191 1142.38 794.478 1256.42 718.38C1336.87 664.594 1387.44 562.04 1375.88 469.722C1369.85 421.59 1337.41 379.351 1308.83 340.897C1272.45 292.168 1273.91 197.573 1220.15 167.315C1133.09 118.335 1034.95 113.163 942.978 117.176C855.869 120.969 775.478 143.709 706.632 184.92C681.628 199.949 659.364 217.351 636.764 235.312C618.358 249.903 599.535 264.417 578.745 278.401C543.05 302.399 512.073 330.462 483.889 363.478C461.522 389.817 441.321 417.178 420.941 446.371C411.964 459.264 402.621 474.661 391.48 491.963C367.142 529.671 339.967 578.339 309.525 634.53C275.821 697.207 238.319 761.007 198.714 827.527C149.139 910.944 133.548 1019.59 220.797 1076.57Z" stroke="url(#paint6_linear_157_112)" stroke-opacity="0.2" stroke-width="3"/>
<path d="M208.09 1087.86C307.631 1153 442.137 1080.93 525.077 1019.98C627.289 944.844 724.774 855.816 852.084 822.805C986.353 787.888 1160.6 804.355 1280.02 724.608C1364.37 668.394 1411.24 562.294 1399.12 465.519C1393.48 420.443 1370.24 379.12 1345.67 341.199C1312.87 290.728 1292.67 220.444 1241.25 187.177C1155.57 131.945 1054.63 111.992 955.988 106.106C863.223 100.519 776.667 115.236 702.126 151.082C675.112 164.164 650.337 179.94 626.336 197.559C606.946 211.885 587.802 227.086 568.502 243.212C534.686 271.372 505.378 305.175 480.21 344.927C460.251 376.396 443.024 409.075 425.924 442.773C418.523 457.408 410.504 474.708 400.854 494.152C380.69 534.829 356.122 585.887 324.77 643.485C291.644 704.279 251.587 768.269 203.078 835.257C145.984 913.926 113.738 1026.21 208.09 1087.86Z" stroke="url(#paint7_linear_157_112)" stroke-opacity="0.2" stroke-width="3"/>
<path d="M430.235 439.259C399.932 522.591 351.581 675.435 207.306 843.006C143.038 917.528 93.9095 1032.71 195.38 1099.15C299.362 1167.22 439.983 1091.94 526.663 1028.32C633.486 949.888 735.353 856.82 868.435 822.181C1008.74 785.602 1178.55 814.393 1303.37 731.125C1391.48 672.371 1434.78 562.709 1422.12 461.605C1409.46 360.501 1346.18 269.357 1262 207.6C1177.68 145.861 1073.85 111.525 968.507 95.4858C754.649 63.0275 568.993 132.184 475.876 326.588C458.324 363.187 444.071 401.184 430.235 439.259Z" stroke="url(#paint8_linear_157_112)" stroke-opacity="0.2" stroke-width="3"/>
</mask>
<g mask="url(#mask0_157_112)">
<rect x="-105" y="-5" width="1205" height="958" fill="#D9D9D9"/>
</g>
</g>
<defs>
<linearGradient id="paint0_linear_157_112" x1="151.341" y1="606.373" x2="1234.65" y2="470.741" gradientUnits="userSpaceOnUse">
<stop stop-color="white" stop-opacity="0"/>
<stop offset="0.75" stop-color="white" stop-opacity="0.41"/>
</linearGradient>
<linearGradient id="paint1_linear_157_112" x1="153.089" y1="621.431" x2="1259.66" y2="482.886" gradientUnits="userSpaceOnUse">
<stop stop-color="white" stop-opacity="0"/>
<stop offset="0.75" stop-color="white" stop-opacity="0.41"/>
</linearGradient>
<linearGradient id="paint2_linear_157_112" x1="151.905" y1="636.266" x2="1284.74" y2="494.433" gradientUnits="userSpaceOnUse">
<stop stop-color="white" stop-opacity="0"/>
<stop offset="0.75" stop-color="white" stop-opacity="0.41"/>
</linearGradient>
<linearGradient id="paint3_linear_157_112" x1="147.928" y1="650.029" x2="1309.64" y2="504.582" gradientUnits="userSpaceOnUse">
<stop stop-color="white" stop-opacity="0"/>
<stop offset="0.75" stop-color="white" stop-opacity="0.41"/>
</linearGradient>
<linearGradient id="paint4_linear_157_112" x1="141.379" y1="661.739" x2="1334.24" y2="512.391" gradientUnits="userSpaceOnUse">
<stop stop-color="white" stop-opacity="0"/>
<stop offset="0.75" stop-color="white" stop-opacity="0.41"/>
</linearGradient>
<linearGradient id="paint5_linear_157_112" x1="132.409" y1="670.042" x2="1358.26" y2="516.564" gradientUnits="userSpaceOnUse">
<stop stop-color="white" stop-opacity="0"/>
<stop offset="0.75" stop-color="white" stop-opacity="0.41"/>
</linearGradient>
<linearGradient id="paint6_linear_157_112" x1="121.189" y1="672.032" x2="1381.46" y2="514.245" gradientUnits="userSpaceOnUse">
<stop stop-color="white" stop-opacity="0"/>
<stop offset="0.75" stop-color="white" stop-opacity="0.41"/>
</linearGradient>
<linearGradient id="paint7_linear_157_112" x1="108.454" y1="670.355" x2="1404.45" y2="508.094" gradientUnits="userSpaceOnUse">
<stop stop-color="white" stop-opacity="0"/>
<stop offset="0.75" stop-color="white" stop-opacity="0.41"/>
</linearGradient>
<linearGradient id="paint8_linear_157_112" x1="94.664" y1="666.31" x2="1426.87" y2="499.517" gradientUnits="userSpaceOnUse">
<stop stop-color="white" stop-opacity="0"/>
<stop offset="0.75" stop-color="white" stop-opacity="0.41"/>
</linearGradient>
<clipPath id="clip0_157_112">
<rect width="1100" height="1007" fill="white"/>
</clipPath>
</defs>
</svg>
