<svg width="23" height="29" viewBox="0 0 23 29" fill="none" xmlns="http://www.w3.org/2000/svg">
<path d="M4.25 7.16815H4.86098V9.60408H17.6528V7.16815H18.264V6.25439H4.25011L4.25 7.16815Z" fill="white"/>
<path d="M19.1767 10.5171H3.33922V27.5733H1.51172V28.4871H9.43043V21.4821L13.3901 21.4823V28.4873H21.0037V27.5735H19.1768L19.1767 10.5171ZM8.21228 25.1368H7.29853V22.8538C7.29853 22.601 7.0933 22.3958 6.84112 22.3958H6.53817C6.28578 22.3958 6.08077 22.601 6.08077 22.8538V25.1368H5.16702V22.8538C5.16702 22.0979 5.78224 21.482 6.53816 21.482H6.84111C7.59698 21.482 8.21226 22.0974 8.21226 22.8538L8.21228 25.1368ZM8.21228 19.9592H7.29853V17.6762C7.29853 17.4234 7.0933 17.2182 6.84112 17.2182H6.53817C6.28578 17.2182 6.08077 17.4234 6.08077 17.6762V19.9592H5.16702V17.6762C5.16702 16.9204 5.78224 16.3044 6.53816 16.3044H6.84111C7.59698 16.3044 8.21226 16.9199 8.21226 17.6762L8.21228 19.9592ZM8.21228 15.0861H7.29853V12.8027C7.29853 12.5503 7.0933 12.3449 6.84112 12.3449H6.53817C6.28578 12.3449 6.08077 12.5501 6.08077 12.8027V15.0861H5.16702V12.8027C5.16702 12.0468 5.78224 11.4311 6.53816 11.4311H6.84111C7.59698 11.4311 8.21226 12.0466 8.21226 12.8027L8.21228 15.0861ZM12.7808 19.9592H11.867V17.6762C11.867 17.4234 11.6618 17.2182 11.4092 17.2182H11.1062C10.8538 17.2182 10.6484 17.4234 10.6484 17.6762V19.9592H9.73466V17.6762C9.73466 16.9204 10.3499 16.3044 11.1062 16.3044H11.4092C12.1651 16.3044 12.7808 16.9199 12.7808 17.6762V19.9592ZM12.7808 15.0861H11.867V12.8027C11.867 12.5503 11.6618 12.3449 11.4092 12.3449H11.1062C10.8538 12.3449 10.6484 12.5501 10.6484 12.8027V15.0861H9.73466V12.8027C9.73466 12.0468 10.3499 11.4311 11.1062 11.4311H11.4092C12.1651 11.4311 12.7808 12.0466 12.7808 12.8027V15.0861ZM17.3493 25.1367H16.4355V22.8538C16.4355 22.6009 16.2303 22.3957 15.9777 22.3957H15.6747C15.4226 22.3957 15.2173 22.6009 15.2173 22.8538V25.1367H14.3036V22.8538C14.3036 22.0979 14.9188 21.482 15.6747 21.482H15.9777C16.7335 21.482 17.3492 22.0974 17.3492 22.8538L17.3493 25.1367ZM17.3493 19.9592H16.4355V17.6762C16.4355 17.4234 16.2303 17.2181 15.9777 17.2181H15.6747C15.4226 17.2181 15.2173 17.4234 15.2173 17.6762V19.9592H14.3036V17.6762C14.3036 16.9203 14.9188 16.3044 15.6747 16.3044H15.9777C16.7335 16.3044 17.3492 16.9198 17.3492 17.6762L17.3493 19.9592ZM17.3493 15.086H16.4355V12.8026C16.4355 12.5503 16.2299 12.3448 15.9775 12.3448H15.6747C15.4226 12.3448 15.2173 12.55 15.2173 12.8026V15.086H14.3036V12.8026C14.3036 12.0468 14.9188 11.4311 15.6747 11.4311H15.9775C16.7338 11.4311 17.3493 12.0465 17.3493 12.8026L17.3493 15.086Z" fill="white"/>
<path d="M2.56267 6.97123L3.95759 7.56649L3.82226 6.05617L4.81906 4.91383L3.34148 4.5754L2.56266 3.27393L1.78444 4.5754L0.306641 4.91383L1.30322 6.05617L1.16832 7.56649L2.56267 6.97123Z" fill="white"/>
<path d="M6.72799 4.55297L8.12421 3.9558L9.51999 4.55297L9.38275 3.04096L10.3825 1.89862L8.90198 1.56168L8.12397 0.258301L7.3464 1.56168L5.86523 1.89862L6.86568 3.04096L6.72799 4.55297Z" fill="white"/>
<path d="M13.0505 4.61238L14.4476 4.01222L15.8448 4.61282L15.705 3.09847L16.708 1.95488L15.2245 1.61985L14.4471 0.313477L13.6702 1.61985L12.1875 1.95488L13.1898 3.09847L13.0505 4.61238Z" fill="white"/>
<path d="M22.2159 5.06992L20.73 4.73574L19.9536 3.42578L19.1767 4.73574L17.6914 5.06992L18.6967 6.21291L18.555 7.72873L19.9535 7.12601L21.3517 7.72873L21.21 6.21291L22.2159 5.06992Z" fill="white"/>
</svg>
