<svg width="25" height="28" viewBox="0 0 25 28" fill="none" xmlns="http://www.w3.org/2000/svg">
<path d="M9.88779 11.9099C10.7005 11.9099 11.2423 12.4278 11.2423 13.2045C11.2423 13.9812 10.7005 14.4991 9.88779 14.4991C9.0751 14.4991 8.5333 13.9812 8.5333 13.2045C8.5333 12.4278 9.0751 11.9099 9.88779 11.9099ZM15.0349 11.9099C15.8476 11.9099 16.3894 12.5572 16.2539 13.334C16.2539 14.1107 15.5767 14.6285 14.764 14.4991C14.0867 14.4991 13.5449 13.8518 13.5449 13.2045C13.6804 12.4278 14.2222 11.9099 15.0349 11.9099ZM21.5364 0C23.1618 0 24.3809 1.29456 24.3809 2.71857V2.84803V27.833L21.401 25.1144L19.7756 23.561L17.8793 22.0075L18.5565 24.5966H2.84443C1.21904 24.5966 0 23.3021 0 21.7486V2.84803C0 1.29456 1.21904 0 2.84443 0H21.5364ZM16.3894 17.9944C18.1502 17.9944 19.6401 17.2176 20.5883 15.9231C20.5883 13.2045 19.911 10.4859 18.5565 8.02626C17.473 7.12007 16.1185 6.73171 14.6285 6.60225L14.4931 6.86116C15.7121 7.24953 16.9312 7.76735 18.0147 8.54409C16.6603 7.89681 15.3058 7.37898 13.8158 7.24953C12.8677 7.12007 11.9195 7.12007 10.9714 7.24953C10.8359 7.24953 10.8359 7.24953 10.7005 7.24953C9.61689 7.37898 8.5333 7.6379 7.58516 8.15572C7.04336 8.41463 6.77246 8.54409 6.77246 8.54409C7.85606 7.6379 9.0751 7.12007 10.4296 6.7317L10.2941 6.60225C8.93965 6.60225 7.58516 7.12007 6.36611 8.02626C5.14707 10.4859 4.46982 13.2045 4.33437 15.9231C5.28252 17.2176 6.90791 17.9944 8.5333 17.9944C8.5333 17.9944 9.0751 17.3471 9.48145 16.8293C8.5333 16.5704 7.58516 16.0525 7.04336 15.2758C7.17881 15.4052 7.31426 15.4052 7.44971 15.5347C7.44971 15.5347 7.58516 15.5347 7.58516 15.6642C7.85606 15.7936 8.2624 16.0525 8.66875 16.182C9.346 16.4409 10.0232 16.5704 10.7005 16.8293C11.9195 17.0882 13.1386 17.0882 14.3576 16.8293C15.0349 16.6998 15.7121 16.5704 16.3894 16.182C16.9312 15.9231 17.4729 15.6642 18.0147 15.4052C17.3375 16.182 16.5248 16.8293 15.4412 17.0882C15.983 17.4765 16.3894 17.9944 16.3894 17.9944Z" fill="#D8D0D5"/>
</svg>
