<svg width="180" height="43" viewBox="0 0 180 43" fill="none" xmlns="http://www.w3.org/2000/svg">
<path d="M90.4846 23.7143C86.8433 23.7143 83.8755 26.4872 83.8755 30.3064C83.8755 34.1024 86.8433 36.8986 90.4846 36.8986C94.1274 36.8986 97.0952 34.1024 97.0952 30.3064C97.0936 26.4872 94.1258 23.7143 90.4846 23.7143ZM90.4846 34.3039C88.489 34.3039 86.769 32.6562 86.769 30.308C86.769 27.9349 88.4906 26.3121 90.4846 26.3121C92.4802 26.3121 94.2001 27.9349 94.2001 30.308C94.2001 32.6547 92.4802 34.3039 90.4846 34.3039ZM76.0651 23.7143C72.4239 23.7143 69.4561 26.4872 69.4561 30.3064C69.4561 34.1024 72.4239 36.8986 76.0651 36.8986C79.7079 36.8986 82.6757 34.1024 82.6757 30.3064C82.6757 26.4872 79.7079 23.7143 76.0651 23.7143ZM76.0651 34.3039C74.0696 34.3039 72.3496 32.6562 72.3496 30.308C72.3496 27.9349 74.0711 26.3121 76.0651 26.3121C78.0607 26.3121 79.7807 27.9349 79.7807 30.308C79.7822 32.6547 78.0607 34.3039 76.0651 34.3039ZM58.9148 25.7386V28.5348H65.5997C65.3999 30.108 64.8767 31.2566 64.0778 32.0548C63.1056 33.0282 61.5838 34.1024 58.9148 34.1024C54.7998 34.1024 51.5827 30.7807 51.5827 26.6608C51.5827 22.5409 54.7998 19.2193 58.9148 19.2193C61.1348 19.2193 62.7557 20.0935 63.9524 21.2172L65.9232 19.2441C64.2512 17.646 62.0327 16.4231 58.9148 16.4231C53.2779 16.4231 48.5391 21.0173 48.5391 26.6608C48.5391 32.3044 53.2779 36.8986 58.9148 36.8986C61.9569 36.8986 64.2528 35.8988 66.0471 34.0264C67.8925 32.1788 68.4668 29.581 68.4668 27.4839C68.4668 26.836 68.4173 26.2361 68.3167 25.737H58.9148V25.7386ZM129.058 27.9101C128.51 26.4376 126.838 23.7143 123.421 23.7143C120.029 23.7143 117.21 26.3865 117.21 30.3064C117.21 34.0016 120.005 36.8986 123.745 36.8986C126.762 36.8986 128.509 35.051 129.233 33.9768L126.988 32.478C126.241 33.5769 125.217 34.3008 123.745 34.3008C122.274 34.3008 121.226 33.6265 120.553 32.3028L129.357 28.6572L129.058 27.9101ZM120.079 30.108C120.005 27.5598 122.05 26.2625 123.522 26.2625C124.669 26.2625 125.641 26.8375 125.967 27.6606L120.079 30.108ZM112.922 36.5002H115.814V17.1237H112.922V36.5002ZM108.181 25.1883H108.082C107.434 24.4133 106.186 23.7143 104.616 23.7143C101.323 23.7143 98.3058 26.6112 98.3058 30.3328C98.3058 34.028 101.323 36.9001 104.616 36.9001C106.187 36.9001 107.434 36.2011 108.082 35.4028H108.181V36.3514C108.181 38.8733 106.835 40.2218 104.666 40.2218C102.895 40.2218 101.797 38.9492 101.348 37.8751L98.8291 38.9244C99.5521 40.6713 101.472 42.8196 104.666 42.8196C108.058 42.8196 110.926 40.8216 110.926 35.9515V24.1157H108.183V25.1883H108.181ZM104.865 34.3039C102.87 34.3039 101.199 32.6299 101.199 30.3328C101.199 28.0093 102.87 26.3121 104.865 26.3121C106.835 26.3121 108.381 28.0093 108.381 30.3328C108.381 32.6299 106.835 34.3039 104.865 34.3039ZM142.611 17.1237H135.689V36.5002H138.576V29.1594H142.609C145.811 29.1594 148.96 26.8391 148.96 23.1423C148.96 19.4456 145.812 17.1237 142.611 17.1237ZM142.685 26.4624H138.576V19.8207H142.685C144.845 19.8207 146.071 21.6109 146.071 23.1423C146.071 24.6427 144.845 26.4624 142.685 26.4624ZM160.538 23.6802C158.447 23.6802 156.281 24.6024 155.384 26.6469L157.948 27.7179C158.496 26.6469 159.518 26.2966 160.588 26.2966C162.082 26.2966 163.601 27.194 163.625 28.789V28.9889C163.102 28.6898 161.981 28.2418 160.613 28.2418C157.849 28.2418 155.035 29.7624 155.035 32.6035C155.035 35.1967 157.301 36.866 159.84 36.866C161.781 36.866 162.853 35.9934 163.525 34.9704H163.624V36.4661H166.414V29.037C166.415 25.5991 163.848 23.6802 160.538 23.6802ZM160.188 34.2992C159.244 34.2992 157.923 33.8249 157.923 32.6531C157.923 31.1574 159.568 30.5839 160.987 30.5839C162.255 30.5839 162.854 30.8582 163.625 31.2318C163.401 33.0282 161.857 34.2992 160.188 34.2992ZM176.572 24.1033L173.261 32.5043H173.162L169.725 24.1033H166.613L171.767 35.8446L168.829 42.3763H171.841L179.785 24.1033H176.572ZM150.554 36.5002H153.442V17.1237H150.554V36.5002Z" fill="white"/>
<path d="M58.4106 5.87645C58.4106 7.17535 58.0267 8.2092 57.2572 8.9811C56.3841 9.8987 55.2446 10.3575 53.8451 10.3575C52.5044 10.3575 51.3634 9.8925 50.4268 8.9625C49.4886 8.03095 49.0195 6.87775 49.0195 5.50135C49.0195 4.1234 49.4886 2.9702 50.4268 2.0402C51.3634 1.10865 52.5044 0.643654 53.8451 0.643654C54.5108 0.643654 55.1471 0.773853 55.7509 1.0327C56.3562 1.2931 56.8408 1.63875 57.203 2.0712L56.3872 2.8896C55.7726 2.15335 54.9257 1.786 53.8436 1.786C52.8651 1.786 52.0198 2.1301 51.3061 2.8183C50.5924 3.5065 50.2364 4.40085 50.2364 5.4998C50.2364 6.59875 50.5924 7.4931 51.3061 8.1813C52.0198 8.8695 52.8651 9.2136 53.8436 9.2136C54.8808 9.2136 55.7462 8.86795 56.4383 8.1751C56.8872 7.72405 57.1473 7.0963 57.217 6.29185H53.8436V5.1743H58.344C58.3905 5.41765 58.4106 5.6517 58.4106 5.87645Z" fill="white"/>
<path d="M65.5477 1.99224H61.3182V4.94034H65.1328V6.05789H61.3182V9.00599H65.5477V10.1499H60.1245V0.84989H65.5477V1.99224Z" fill="white"/>
<path d="M70.5806 10.1499H69.3869V1.99224H66.7922V0.84989H73.1753V1.99224H70.5806V10.1499Z" fill="white"/>
<path d="M77.7933 10.1499V0.84989H78.9869V10.1499H77.7933Z" fill="white"/>
<path d="M84.2803 10.1499H83.0867V1.99224H80.492V0.84989H86.875V1.99224H84.2803V10.1499Z" fill="white"/>
<path d="M98.958 8.94863C98.0446 9.88793 96.9098 10.3576 95.552 10.3576C94.1943 10.3576 93.0595 9.88793 92.1477 8.94863C91.2342 8.00933 90.7791 6.85923 90.7791 5.49988C90.7791 4.14053 91.2342 2.99042 92.1477 2.05112C93.0595 1.11182 94.1943 0.640625 95.552 0.640625C96.902 0.640625 98.0353 1.11337 98.9518 2.05732C99.8683 3.00127 100.327 4.14828 100.327 5.49988C100.327 6.85923 99.8698 8.00933 98.958 8.94863ZM93.0285 8.16898C93.7159 8.86648 94.5566 9.21367 95.552 9.21367C96.5475 9.21367 97.3897 8.86493 98.0755 8.16898C98.7629 7.47148 99.1081 6.58178 99.1081 5.49988C99.1081 4.41798 98.7629 3.52827 98.0755 2.83078C97.3897 2.13328 96.5475 1.78608 95.552 1.78608C94.5566 1.78608 93.7159 2.13483 93.0285 2.83078C92.3427 3.52827 91.9975 4.41798 91.9975 5.49988C91.9975 6.58178 92.3427 7.47148 93.0285 8.16898Z" fill="white"/>
<path d="M102.002 10.1499V0.84989H103.454L107.968 8.08374H108.019L107.968 6.29194V0.84989H109.162V10.1499H107.916L103.192 2.56419H103.141L103.192 4.35599V10.1499H102.002Z" fill="white"/>
<path d="M58.4106 5.87645C58.4106 7.17535 58.0267 8.2092 57.2572 8.9811C56.3841 9.8987 55.2446 10.3575 53.8451 10.3575C52.5044 10.3575 51.3634 9.8925 50.4268 8.9625C49.4886 8.03095 49.0195 6.87775 49.0195 5.50135C49.0195 4.1234 49.4886 2.9702 50.4268 2.0402C51.3634 1.10865 52.5044 0.643654 53.8451 0.643654C54.5108 0.643654 55.1471 0.773853 55.7509 1.0327C56.3562 1.2931 56.8408 1.63875 57.203 2.0712L56.3872 2.8896C55.7726 2.15335 54.9257 1.786 53.8436 1.786C52.8651 1.786 52.0198 2.1301 51.3061 2.8183C50.5924 3.5065 50.2364 4.40085 50.2364 5.4998C50.2364 6.59875 50.5924 7.4931 51.3061 8.1813C52.0198 8.8695 52.8651 9.2136 53.8436 9.2136C54.8808 9.2136 55.7462 8.86795 56.4383 8.1751C56.8872 7.72405 57.1473 7.0963 57.217 6.29185H53.8436V5.1743H58.344C58.3905 5.41765 58.4106 5.6517 58.4106 5.87645Z" stroke="white" stroke-width="0.2" stroke-miterlimit="10"/>
<path d="M65.5477 1.99224H61.3182V4.94034H65.1328V6.05789H61.3182V9.00599H65.5477V10.1499H60.1245V0.84989H65.5477V1.99224Z" stroke="white" stroke-width="0.2" stroke-miterlimit="10"/>
<path d="M70.5806 10.1499H69.3869V1.99224H66.7922V0.84989H73.1753V1.99224H70.5806V10.1499Z" stroke="white" stroke-width="0.2" stroke-miterlimit="10"/>
<path d="M77.7933 10.1499V0.84989H78.9869V10.1499H77.7933Z" stroke="white" stroke-width="0.2" stroke-miterlimit="10"/>
<path d="M84.2803 10.1499H83.0867V1.99224H80.492V0.84989H86.875V1.99224H84.2803V10.1499Z" stroke="white" stroke-width="0.2" stroke-miterlimit="10"/>
<path d="M98.958 8.94863C98.0446 9.88793 96.9098 10.3576 95.552 10.3576C94.1943 10.3576 93.0595 9.88793 92.1477 8.94863C91.2342 8.00933 90.7791 6.85923 90.7791 5.49988C90.7791 4.14053 91.2342 2.99042 92.1477 2.05112C93.0595 1.11182 94.1943 0.640625 95.552 0.640625C96.902 0.640625 98.0353 1.11337 98.9518 2.05732C99.8683 3.00127 100.327 4.14828 100.327 5.49988C100.327 6.85923 99.8698 8.00933 98.958 8.94863ZM93.0285 8.16898C93.7159 8.86648 94.5566 9.21367 95.552 9.21367C96.5475 9.21367 97.3897 8.86493 98.0755 8.16898C98.7629 7.47148 99.1081 6.58178 99.1081 5.49988C99.1081 4.41798 98.7629 3.52827 98.0755 2.83078C97.3897 2.13328 96.5475 1.78608 95.552 1.78608C94.5566 1.78608 93.7159 2.13483 93.0285 2.83078C92.3427 3.52827 91.9975 4.41798 91.9975 5.49988C91.9975 6.58178 92.3427 7.47148 93.0285 8.16898Z" stroke="white" stroke-width="0.2" stroke-miterlimit="10"/>
<path d="M102.002 10.1499V0.84989H103.454L107.968 8.08374H108.019L107.968 6.29194V0.84989H109.162V10.1499H107.916L103.192 2.56419H103.141L103.192 4.35599V10.1499H102.002Z" stroke="white" stroke-width="0.2" stroke-miterlimit="10"/>
<g filter="url(#filter0_ii_155_18)">
<path d="M1.15625 1.68371C0.705736 2.16111 0.439452 2.90201 0.439452 3.86146V38.1413C0.439452 39.1023 0.705736 39.8416 1.15625 40.319L1.27081 40.4306L20.4508 21.2277V21.0014V20.7751L1.27081 1.57056L1.15625 1.68371Z" fill="url(#paint0_linear_155_18)"/>
<path d="M26.8435 27.6309L20.4512 21.2279V21.0016V20.7753L26.845 14.3738L26.989 14.4559L34.5641 18.7649C36.7269 19.9956 36.7269 22.0091 34.5641 23.2413L26.989 27.5503L26.8435 27.6309Z" fill="url(#paint1_linear_155_18)"/>
<g filter="url(#filter1_i_155_18)">
<path d="M26.9887 27.5487L20.4493 21.0015L1.15625 40.3191C1.8684 41.0755 3.04654 41.1685 4.3733 40.4152L26.9887 27.5487Z" fill="url(#paint2_linear_155_18)"/>
</g>
<path d="M26.9887 14.4543L4.3733 1.58928C3.04654 0.834426 1.8684 0.928976 1.15625 1.68538L20.4508 21.003L26.9887 14.4543Z" fill="url(#paint3_linear_155_18)"/>
</g>
<defs>
<filter id="filter0_ii_155_18" x="0.439453" y="1.06836" width="35.7466" height="39.8672" filterUnits="userSpaceOnUse" color-interpolation-filters="sRGB">
<feFlood flood-opacity="0" result="BackgroundImageFix"/>
<feBlend mode="normal" in="SourceGraphic" in2="BackgroundImageFix" result="shape"/>
<feColorMatrix in="SourceAlpha" type="matrix" values="0 0 0 0 0 0 0 0 0 0 0 0 0 0 0 0 0 0 127 0" result="hardAlpha"/>
<feOffset dy="-0.15"/>
<feComposite in2="hardAlpha" operator="arithmetic" k2="-1" k3="1"/>
<feColorMatrix type="matrix" values="0 0 0 0 0 0 0 0 0 0 0 0 0 0 0 0 0 0 0.12 0"/>
<feBlend mode="normal" in2="shape" result="effect1_innerShadow_155_18"/>
<feColorMatrix in="SourceAlpha" type="matrix" values="0 0 0 0 0 0 0 0 0 0 0 0 0 0 0 0 0 0 127 0" result="hardAlpha"/>
<feOffset dy="0.15"/>
<feComposite in2="hardAlpha" operator="arithmetic" k2="-1" k3="1"/>
<feColorMatrix type="matrix" values="0 0 0 0 1 0 0 0 0 1 0 0 0 0 1 0 0 0 0.25 0"/>
<feBlend mode="normal" in2="effect1_innerShadow_155_18" result="effect2_innerShadow_155_18"/>
</filter>
<filter id="filter1_i_155_18" x="1.15625" y="21.0015" width="25.8325" height="19.9341" filterUnits="userSpaceOnUse" color-interpolation-filters="sRGB">
<feFlood flood-opacity="0" result="BackgroundImageFix"/>
<feBlend mode="normal" in="SourceGraphic" in2="BackgroundImageFix" result="shape"/>
<feColorMatrix in="SourceAlpha" type="matrix" values="0 0 0 0 0 0 0 0 0 0 0 0 0 0 0 0 0 0 127 0" result="hardAlpha"/>
<feOffset dy="-0.15"/>
<feComposite in2="hardAlpha" operator="arithmetic" k2="-1" k3="1"/>
<feColorMatrix type="matrix" values="0 0 0 0 0 0 0 0 0 0 0 0 0 0 0 0 0 0 0.08 0"/>
<feBlend mode="normal" in2="shape" result="effect1_innerShadow_155_18"/>
</filter>
<linearGradient id="paint0_linear_155_18" x1="18.7506" y1="3.49876" x2="-7.26144" y2="29.4798" gradientUnits="userSpaceOnUse">
<stop stop-color="#00A0FF"/>
<stop offset="0.0066" stop-color="#00A1FF"/>
<stop offset="0.2601" stop-color="#00BEFF"/>
<stop offset="0.5122" stop-color="#00D2FF"/>
<stop offset="0.7604" stop-color="#00DFFF"/>
<stop offset="1" stop-color="#00E3FF"/>
</linearGradient>
<linearGradient id="paint1_linear_155_18" x1="37.3794" y1="21.0016" x2="-0.0794386" y2="21.0016" gradientUnits="userSpaceOnUse">
<stop stop-color="#FFE000"/>
<stop offset="0.4087" stop-color="#FFBD00"/>
<stop offset="0.7754" stop-color="#FFA500"/>
<stop offset="1" stop-color="#FF9C00"/>
</linearGradient>
<linearGradient id="paint2_linear_155_18" x1="23.4374" y1="24.557" x2="-11.8383" y2="59.7905" gradientUnits="userSpaceOnUse">
<stop stop-color="#FF3A44"/>
<stop offset="1" stop-color="#C31162"/>
</linearGradient>
<linearGradient id="paint3_linear_155_18" x1="-3.70277" y1="-9.72603" x2="12.0488" y2="6.0067" gradientUnits="userSpaceOnUse">
<stop stop-color="#32A071"/>
<stop offset="0.0685" stop-color="#2DA771"/>
<stop offset="0.4762" stop-color="#15CF74"/>
<stop offset="0.8009" stop-color="#06E775"/>
<stop offset="1" stop-color="#00F076"/>
</linearGradient>
</defs>
</svg>
