<svg width="1455" height="1138" viewBox="0 0 1455 1138" fill="none" xmlns="http://www.w3.org/2000/svg">
<mask id="mask0_93_182" style="mask-type:alpha" maskUnits="userSpaceOnUse" x="103" y="36" width="1291" height="1085">
<path d="M669.63 454.122C657.623 471.015 640.407 482.095 610.029 482.406C507.49 483.346 408.297 438.342 305.615 471.761C252.911 488.965 213.328 526.383 188.534 573.46C71.7861 796.041 198.367 958.929 264.922 1002.46C333.107 1047.08 425.112 997.792 481.803 956.033C551.678 904.606 618.469 843.735 705.523 821.067C797.444 797.142 1002.37 727.9 1084.07 673.311C1141.71 634.796 1213.79 553.218 1205.5 487.003C1197.21 420.789 1112.07 370.922 1056.9 330.493C1001.73 290.065 1131.88 49.7697 1062.81 39.2767C969.926 25.1686 886.489 113.602 834.621 175.449C782.046 238.161 738.702 307.348 703.551 380.165C690.633 407.132 683.607 434.524 669.63 454.122Z" stroke="url(#paint0_linear_93_182)" stroke-opacity="0.2" stroke-width="3"/>
<path d="M252.197 1013.62C324.823 1061.18 422.926 1008.54 483.358 964.116C557.844 909.395 629.002 844.357 721.859 820.315C819.834 794.857 1020.31 737.811 1107.4 679.574C1168.93 638.502 1237.31 553.506 1228.47 482.835C1220.56 419.677 1144.16 371.301 1093.49 330.957C1041.3 289.38 1150.06 73.4898 1083.64 59.3011C991.715 39.7714 905.568 111.989 847.227 164.43C788.634 217.032 739.338 278.816 698.641 346.378C683.58 371.414 674.042 397.181 658.665 416.437C645.658 432.939 628.223 444.433 599.367 447.141C555.875 451.163 513.553 449.349 471.957 448.996C436.474 448.653 401.417 449.55 366.221 456.931C349.15 460.491 332.066 466.122 314.436 473.891C266.583 495.143 228.914 533.744 203.242 582.483C165.322 654.87 148.057 721.956 145.898 781.719C141.726 893.724 200.729 979.973 252.197 1013.62Z" stroke="url(#paint1_linear_93_182)" stroke-opacity="0.2" stroke-width="3"/>
<path d="M239.491 1024.91C316.558 1075.4 420.776 1019.55 484.931 972.326C564.013 914.184 639.57 845.232 738.198 819.563C842.227 792.57 1038.39 747.705 1130.87 685.946C1196.16 642.336 1260.98 553.776 1251.6 478.903C1244.06 418.674 1176.27 371.807 1130.24 331.658C1081.01 288.805 1168.5 97.1758 1104.67 79.6901C1013.67 54.6115 924.982 110.852 860.151 153.759C795.705 196.488 740.277 250.505 694.034 312.812C676.947 335.774 664.897 359.915 648.001 378.973C633.862 395.099 616.089 407.153 588.889 412.24C546.961 420.076 506.923 424.572 468.044 430.733C435.149 435.886 403.2 442.084 370.835 453.638C355.506 459.178 339.896 466.823 323.575 476.368C280.66 501.27 244.834 541.58 218.252 591.726C181.029 662.087 158.791 728.502 150.145 789.594C134.919 895.741 180.92 986.592 239.491 1024.91Z" stroke="url(#paint2_linear_93_182)" stroke-opacity="0.2" stroke-width="3"/>
<path d="M226.78 1036.2C308.423 1089.61 418.621 1030.55 486.65 980.646C570.328 919.084 650.4 846.075 754.697 819.049C864.765 790.395 1056.5 757.854 1154.38 692.574C1223.42 646.424 1284.68 554.429 1274.75 475.1C1267.59 417.926 1208.52 372.297 1166.99 332.36C1120.86 288.214 1186.81 120.879 1125.67 99.9521C1035.59 69.1973 944.509 109.571 872.921 142.978C802.607 175.707 741.061 222.083 689.138 279.152C670.043 300.167 655.465 322.555 637.185 341.398C621.911 357.149 603.935 369.746 578.375 377.085C538.01 388.735 500.256 399.54 463.96 412.232C433.788 422.864 404.797 434.254 375.279 450.107C361.542 457.517 347.674 467.143 332.394 478.497C294.401 506.921 260.419 548.941 232.942 600.621C196.699 669.048 169.741 734.632 154.089 797.248C129.312 897.607 161.107 993.211 226.78 1036.2Z" stroke="url(#paint3_linear_93_182)" stroke-opacity="0.2" stroke-width="3"/>
<path d="M214.071 1047.49C300.155 1103.84 416.468 1041.55 488.22 988.856C576.644 923.984 660.965 846.95 771.033 818.297C887.155 788.109 1074.57 767.748 1177.7 698.836C1250.63 650.129 1308.19 554.589 1297.85 470.914C1291.08 416.796 1240.83 372.261 1203.57 332.823C1160.66 287.24 1205.21 144.183 1146.37 119.993C1057.18 83.3067 963.887 108.179 885.527 131.958C809.643 154.909 741.832 193.533 684.362 245.348C663.242 264.288 646.152 285.051 626.487 303.68C610.214 319.038 591.9 332.195 567.862 341.93C528.96 357.664 493.709 374.364 460.011 393.715C432.397 409.588 406.396 426.423 380.008 446.669C367.863 455.95 355.603 467.572 341.647 480.83C308.411 512.539 276.454 556.632 248.067 609.72C212.67 676.231 181.66 740.899 158.601 805.089C124.524 899.499 141.146 999.719 214.071 1047.49Z" stroke="url(#paint4_linear_93_182)" stroke-opacity="0.2" stroke-width="3"/>
<path d="M201.365 1058.78C291.89 1118.07 414.317 1052.56 489.793 997.066C582.813 928.772 671.517 847.698 787.254 817.688C909.43 785.967 1092.42 777.929 1201.06 705.352C1277.75 654.106 1331.76 555.131 1320.86 466.999C1314.46 415.937 1273.04 372.495 1240.19 333.541C1200.48 286.393 1223.49 167.631 1167.26 140.398C1079.08 97.6373 983.483 107.407 898.318 121.303C816.88 134.603 742.786 165.349 679.503 211.942C656.508 228.918 636.756 247.945 615.556 266.249C598.284 281.215 579.649 295.059 557.235 306.918C519.928 326.721 486.763 349.238 455.948 375.341C431.025 396.438 407.982 418.464 384.473 443.265C373.903 454.288 363.102 467.797 350.487 483.086C321.842 517.841 292.193 564.103 262.794 618.87C228.243 683.464 193.763 747.531 162.596 813.124C120.589 901.673 121.337 1006.34 201.365 1058.78Z" stroke="url(#paint5_linear_93_182)" stroke-opacity="0.2" stroke-width="3"/>
<path d="M188.773 1069.93C283.739 1132.15 412.147 1063.43 491.363 1005.28C588.978 933.562 682.081 848.575 803.589 816.937C931.803 783.554 1110.36 787.841 1224.4 711.742C1304.84 657.957 1355.42 555.403 1343.86 463.085C1337.83 414.952 1305.39 372.714 1276.81 334.26C1240.43 285.53 1241.89 190.935 1188.13 160.677C1101.07 111.697 1002.92 106.526 910.954 110.539C823.845 114.332 743.454 137.072 674.608 178.283C649.604 193.312 627.34 210.713 604.74 228.675C586.334 243.266 567.511 257.779 546.721 271.763C511.026 295.762 480.049 323.825 451.865 356.841C429.499 383.179 409.297 410.54 388.917 439.734C379.94 452.627 370.597 468.023 359.456 485.326C335.118 523.034 307.943 571.702 277.501 627.892C243.797 690.57 206.295 754.369 166.69 820.889C117.115 904.307 101.524 1012.96 188.773 1069.93Z" stroke="url(#paint6_linear_93_182)" stroke-opacity="0.2" stroke-width="3"/>
<path d="M176.066 1081.22C275.607 1146.36 410.113 1074.29 493.053 1013.34C595.265 938.207 692.75 849.179 820.06 816.168C954.329 781.251 1128.57 797.717 1247.99 717.97C1332.34 661.756 1379.21 555.656 1367.1 458.882C1361.45 413.805 1338.22 372.483 1313.65 334.561C1280.85 284.09 1260.64 213.807 1209.22 180.54C1123.55 125.307 1022.6 105.354 923.964 99.4686C831.199 93.8818 744.643 108.599 670.102 144.444C643.088 157.526 618.313 173.303 594.312 190.922C574.922 205.248 555.778 220.449 536.478 236.574C502.662 264.734 473.354 298.538 448.186 338.289C428.227 369.759 411 402.437 393.9 436.135C386.499 450.771 378.481 468.07 368.83 487.514C348.666 528.192 324.098 579.249 292.746 636.847C259.621 697.641 219.563 761.632 171.054 828.62C113.96 907.288 81.7142 1019.58 176.066 1081.22Z" stroke="url(#paint7_linear_93_182)" stroke-opacity="0.2" stroke-width="3"/>
<path d="M398.211 432.621C367.908 515.954 319.557 668.798 175.282 836.368C111.014 910.891 61.8855 1026.07 163.356 1092.51C267.338 1160.59 407.959 1085.3 494.639 1021.68C601.462 943.251 703.329 850.182 836.411 815.543C976.718 778.965 1146.53 807.756 1271.35 724.488C1359.45 665.734 1402.75 556.072 1390.1 454.968C1377.44 353.864 1314.15 262.719 1229.97 200.963C1145.66 139.223 1041.83 104.888 936.483 88.8484C722.625 56.3901 536.97 125.547 443.852 319.95C426.3 356.55 412.047 394.547 398.211 432.621Z" stroke="url(#paint8_linear_93_182)" stroke-opacity="0.2" stroke-width="3"/>
</mask>
<g mask="url(#mask0_93_182)">
<rect x="-337" y="-152" width="1441" height="1166" fill="#D9D9D9"/>
</g>
<defs>
<linearGradient id="paint0_linear_93_182" x1="119.317" y1="599.736" x2="1202.63" y2="464.104" gradientUnits="userSpaceOnUse">
<stop stop-color="white" stop-opacity="0"/>
<stop offset="0.75" stop-color="white" stop-opacity="0.41"/>
</linearGradient>
<linearGradient id="paint1_linear_93_182" x1="121.065" y1="614.794" x2="1227.64" y2="476.249" gradientUnits="userSpaceOnUse">
<stop stop-color="white" stop-opacity="0"/>
<stop offset="0.75" stop-color="white" stop-opacity="0.41"/>
</linearGradient>
<linearGradient id="paint2_linear_93_182" x1="119.881" y1="629.628" x2="1252.72" y2="487.796" gradientUnits="userSpaceOnUse">
<stop stop-color="white" stop-opacity="0"/>
<stop offset="0.75" stop-color="white" stop-opacity="0.41"/>
</linearGradient>
<linearGradient id="paint3_linear_93_182" x1="115.904" y1="643.392" x2="1277.61" y2="497.945" gradientUnits="userSpaceOnUse">
<stop stop-color="white" stop-opacity="0"/>
<stop offset="0.75" stop-color="white" stop-opacity="0.41"/>
</linearGradient>
<linearGradient id="paint4_linear_93_182" x1="109.356" y1="655.102" x2="1302.22" y2="505.754" gradientUnits="userSpaceOnUse">
<stop stop-color="white" stop-opacity="0"/>
<stop offset="0.75" stop-color="white" stop-opacity="0.41"/>
</linearGradient>
<linearGradient id="paint5_linear_93_182" x1="100.385" y1="663.405" x2="1326.23" y2="509.927" gradientUnits="userSpaceOnUse">
<stop stop-color="white" stop-opacity="0"/>
<stop offset="0.75" stop-color="white" stop-opacity="0.41"/>
</linearGradient>
<linearGradient id="paint6_linear_93_182" x1="89.1654" y1="665.395" x2="1349.43" y2="507.608" gradientUnits="userSpaceOnUse">
<stop stop-color="white" stop-opacity="0"/>
<stop offset="0.75" stop-color="white" stop-opacity="0.41"/>
</linearGradient>
<linearGradient id="paint7_linear_93_182" x1="76.4305" y1="663.717" x2="1372.43" y2="501.457" gradientUnits="userSpaceOnUse">
<stop stop-color="white" stop-opacity="0"/>
<stop offset="0.75" stop-color="white" stop-opacity="0.41"/>
</linearGradient>
<linearGradient id="paint8_linear_93_182" x1="62.64" y1="659.673" x2="1394.84" y2="492.879" gradientUnits="userSpaceOnUse">
<stop stop-color="white" stop-opacity="0"/>
<stop offset="0.75" stop-color="white" stop-opacity="0.41"/>
</linearGradient>
</defs>
</svg>
