<?xml version="1.0" encoding="utf-8"?>
<!-- Generator: Adobe Illustrator 26.3.1, SVG Export Plug-In . SVG Version: 6.00 Build 0)  -->
<svg version="1.1" id="Layer_1" xmlns="http://www.w3.org/2000/svg" xmlns:xlink="http://www.w3.org/1999/xlink" x="0px" y="0px"
	 viewBox="0 0 1455 1138" style="enable-background:new 0 0 1455 1138;" xml:space="preserve">
<style type="text/css">
	.st0{display:none;}
	.st1{fill:none;stroke:url(#SVGID_1_);stroke-width:3;stroke-opacity:0.2;}
	.st2{fill:none;stroke:url(#SVGID_00000102543338046996039840000001916643989691549361_);stroke-width:3;stroke-opacity:0.2;}
	.st3{fill:none;stroke:url(#SVGID_00000099640158455469364310000013899095380596524474_);stroke-width:3;stroke-opacity:0.2;}
	.st4{fill:none;stroke:url(#SVGID_00000112598306405009881990000003033232796745620659_);stroke-width:3;stroke-opacity:0.2;}
	.st5{fill:none;stroke:url(#SVGID_00000180328253911323622910000003240240663578679462_);stroke-width:3;stroke-opacity:0.2;}
	.st6{fill:none;stroke:url(#SVGID_00000010999643520553679800000001992030435440509096_);stroke-width:3;stroke-opacity:0.2;}
	.st7{fill:none;stroke:url(#SVGID_00000036213039108048659920000016120177796593500053_);stroke-width:3;stroke-opacity:0.2;}
	.st8{fill:none;stroke:url(#SVGID_00000049935593540763837800000012683739657308533673_);stroke-width:3;stroke-opacity:0.2;}
	.st9{fill:none;stroke:url(#SVGID_00000117646963752609786740000014433717239972402603_);stroke-width:3;stroke-opacity:0.2;}
</style>
<rect class="st0" width="1455" height="1138"/>
<linearGradient id="SVGID_1_" gradientUnits="userSpaceOnUse" x1="464.9174" y1="538.2628" x2="1548.2305" y2="673.8948" gradientTransform="matrix(1 0 0 -1 0 1138)">
	<stop  offset="0" style="stop-color:#FFFFFF;stop-opacity:0"/>
	<stop  offset="0.75" style="stop-color:#FFFFFF;stop-opacity:0.41"/>
</linearGradient>
<path class="st1" d="M1015.2,454.1c-12,16.9-29.2,28-59.6,28.3c-102.5,0.9-201.7-44.1-304.4-10.6c-52.7,17.2-92.3,54.6-117.1,101.7
	c-116.7,222.6,9.8,385.5,76.4,429c68.2,44.6,160.2-4.7,216.9-46.4c69.9-51.4,136.7-112.3,223.7-135
	c91.9-23.9,296.8-93.2,378.5-147.8c57.6-38.5,129.7-120.1,121.4-186.3c-8.3-66.2-93.4-116.1-148.6-156.5
	c-55.2-40.4,75-280.7,5.9-291.2c-92.9-14.1-176.3,74.3-228.2,136.2c-52.6,62.7-95.9,131.9-131.1,204.7
	C1036.2,407.1,1029.2,434.5,1015.2,454.1z"/>
<linearGradient id="SVGID_00000155828934324055391540000008455433678626432907_" gradientUnits="userSpaceOnUse" x1="466.6653" y1="523.2058" x2="1573.2402" y2="661.7508" gradientTransform="matrix(1 0 0 -1 0 1138)">
	<stop  offset="0" style="stop-color:#FFFFFF;stop-opacity:0"/>
	<stop  offset="0.75" style="stop-color:#FFFFFF;stop-opacity:0.41"/>
</linearGradient>
<path style="fill:none;stroke:url(#SVGID_00000155828934324055391540000008455433678626432907_);stroke-width:3;stroke-opacity:0.2;" d="
	M597.8,1013.6c72.6,47.6,170.7-5.1,231.2-49.5c74.5-54.7,145.6-119.8,238.5-143.8c98-25.5,298.5-82.5,385.5-140.7
	c61.5-41.1,129.9-126.1,121.1-196.7c-7.9-63.2-84.3-111.5-135-151.9c-52.2-41.6,56.6-257.5-9.8-271.7
	c-91.9-19.5-178.1,52.7-236.4,105.1c-58.6,52.6-107.9,114.4-148.6,181.9c-15.1,25-24.6,50.8-40,70.1c-13,16.5-30.4,28-59.3,30.7
	c-43.5,4-85.8,2.2-127.4,1.9c-35.5-0.3-70.5,0.6-105.7,7.9c-17.1,3.6-34.2,9.2-51.8,17c-47.9,21.3-85.5,59.9-111.2,108.6
	c-37.9,72.4-55.2,139.5-57.3,199.2C487.3,893.7,546.3,980,597.8,1013.6z"/>
<linearGradient id="SVGID_00000148658335780735144660000016950713033012725649_" gradientUnits="userSpaceOnUse" x1="465.4812" y1="508.3726" x2="1598.3202" y2="650.2047" gradientTransform="matrix(1 0 0 -1 0 1138)">
	<stop  offset="0" style="stop-color:#FFFFFF;stop-opacity:0"/>
	<stop  offset="0.75" style="stop-color:#FFFFFF;stop-opacity:0.41"/>
</linearGradient>
<path style="fill:none;stroke:url(#SVGID_00000148658335780735144660000016950713033012725649_);stroke-width:3;stroke-opacity:0.2;" d="
	M585.1,1024.9c77.1,50.5,181.3-5.4,245.4-52.6c79.1-58.1,154.6-127.1,253.3-152.8c104-27,300.2-71.9,392.7-133.6
	c65.3-43.6,130.1-132.2,120.7-207c-7.5-60.2-75.3-107.1-121.4-147.2c-49.2-42.9,38.3-234.5-25.6-252c-91-25.1-179.7,31.2-244.5,74.1
	c-64.4,42.7-119.9,96.7-166.1,159.1c-17.1,23-29.1,47.1-46,66.2c-14.1,16.1-31.9,28.2-59.1,33.3c-41.9,7.8-82,12.3-120.8,18.5
	c-32.9,5.2-64.8,11.4-97.2,22.9c-15.3,5.5-30.9,13.2-47.3,22.7c-42.9,24.9-78.7,65.2-105.3,115.4c-37.2,70.4-59.5,136.8-68.1,197.9
	C480.5,895.7,526.5,986.6,585.1,1024.9z"/>
<linearGradient id="SVGID_00000106865214546519255400000004677028997139282083_" gradientUnits="userSpaceOnUse" x1="461.5041" y1="494.6091" x2="1623.2101" y2="640.0561" gradientTransform="matrix(1 0 0 -1 0 1138)">
	<stop  offset="0" style="stop-color:#FFFFFF;stop-opacity:0"/>
	<stop  offset="0.75" style="stop-color:#FFFFFF;stop-opacity:0.41"/>
</linearGradient>
<path style="fill:none;stroke:url(#SVGID_00000106865214546519255400000004677028997139282083_);stroke-width:3;stroke-opacity:0.2;" d="
	M572.4,1036.2c81.6,53.4,191.8-5.6,259.9-55.6c83.7-61.6,163.8-134.6,268-161.6c110.1-28.7,301.8-61.2,399.7-126.5
	c69-46.1,130.3-138.1,120.4-217.5c-7.2-57.2-66.2-102.8-107.8-142.7c-46.1-44.1,19.8-211.5-41.3-232.4
	c-90.1-30.8-181.2,9.6-252.7,43c-70.3,32.7-131.9,79.1-183.8,136.2c-19.1,21-33.7,43.4-52,62.2c-15.3,15.8-33.2,28.3-58.8,35.7
	c-40.4,11.6-78.1,22.5-114.4,35.1c-30.2,10.6-59.2,22-88.7,37.9c-13.7,7.4-27.6,17-42.9,28.4c-38,28.4-72,70.4-99.5,122.1
	c-36.2,68.4-63.2,134-78.9,196.6C474.9,897.6,506.7,993.2,572.4,1036.2z"/>
<linearGradient id="SVGID_00000142176719671816931540000018415393673680717706_" gradientUnits="userSpaceOnUse" x1="454.9561" y1="482.8995" x2="1647.8201" y2="632.2474" gradientTransform="matrix(1 0 0 -1 0 1138)">
	<stop  offset="0" style="stop-color:#FFFFFF;stop-opacity:0"/>
	<stop  offset="0.75" style="stop-color:#FFFFFF;stop-opacity:0.41"/>
</linearGradient>
<path style="fill:none;stroke:url(#SVGID_00000142176719671816931540000018415393673680717706_);stroke-width:3;stroke-opacity:0.2;" d="
	M559.7,1047.5c86.1,56.3,202.4-5.9,274.1-58.6c88.4-64.9,172.7-141.9,282.8-170.6c116.1-30.2,303.5-50.5,406.7-119.5
	c72.9-48.7,130.5-144.2,120.2-227.9c-6.8-54.1-57-98.7-94.3-138.1c-42.9-45.6,1.6-188.6-57.2-212.8c-89.2-36.7-182.5-11.8-260.8,12
	c-75.9,23-143.7,61.6-201.2,113.4c-21.1,18.9-38.2,39.7-57.9,58.3c-16.3,15.4-34.6,28.5-58.6,38.2c-38.9,15.7-74.2,32.4-107.9,51.8
	c-27.6,15.9-53.6,32.7-80,53c-12.1,9.3-24.4,20.9-38.4,34.2c-33.2,31.7-65.2,75.8-93.6,128.9c-35.4,66.5-66.4,131.2-89.5,195.4
	C470.1,899.5,486.7,999.7,559.7,1047.5z"/>
<linearGradient id="SVGID_00000147219720066073513480000000377804198621222023_" gradientUnits="userSpaceOnUse" x1="445.9854" y1="474.5943" x2="1671.8303" y2="628.0723" gradientTransform="matrix(1 0 0 -1 0 1138)">
	<stop  offset="0" style="stop-color:#FFFFFF;stop-opacity:0"/>
	<stop  offset="0.75" style="stop-color:#FFFFFF;stop-opacity:0.41"/>
</linearGradient>
<path style="fill:none;stroke:url(#SVGID_00000147219720066073513480000000377804198621222023_);stroke-width:3;stroke-opacity:0.2;" d="
	M547,1058.8c90.5,59.3,213-6.2,288.4-61.7c93-68.3,181.7-149.4,297.5-179.4C1255,786,1438,777.9,1546.7,705.4
	c76.7-51.2,130.7-150.2,119.8-238.4c-6.4-51.1-47.8-94.5-80.7-133.5c-39.7-47.1-16.7-165.9-72.9-193.1
	c-88.2-42.8-183.8-33-268.9-19.1c-81.4,13.3-155.5,44-218.8,90.6c-23,17-42.7,36-63.9,54.3c-17.3,15-35.9,28.8-58.3,40.7
	c-37.3,19.8-70.5,42.3-101.3,68.4c-24.9,21.1-48,43.1-71.5,67.9c-10.6,11-21.4,24.5-34,39.8c-28.6,34.8-58.3,81-87.7,135.8
	c-34.6,64.6-69,128.7-100.2,194.3C466.2,901.7,466.9,1006.3,547,1058.8z"/>
<linearGradient id="SVGID_00000010283635292337165320000017595509499910992005_" gradientUnits="userSpaceOnUse" x1="434.7656" y1="472.6054" x2="1695.0303" y2="630.3925" gradientTransform="matrix(1 0 0 -1 0 1138)">
	<stop  offset="0" style="stop-color:#FFFFFF;stop-opacity:0"/>
	<stop  offset="0.75" style="stop-color:#FFFFFF;stop-opacity:0.41"/>
</linearGradient>
<path style="fill:none;stroke:url(#SVGID_00000010283635292337165320000017595509499910992005_);stroke-width:3;stroke-opacity:0.2;" d="
	M534.4,1069.9c95,62.2,223.4-6.5,302.6-64.7c97.6-71.7,190.7-156.7,312.2-188.3c128.2-33.4,306.8-29.1,420.8-105.2
	c80.4-53.8,131-156.3,119.5-248.7c-6-48.1-38.5-90.4-67-128.8c-36.4-48.7-34.9-143.3-88.7-173.6c-87.1-49-185.2-54.2-277.2-50.1
	c-87.1,3.8-167.5,26.5-236.3,67.7c-25,15-47.3,32.4-69.9,50.4c-18.4,14.6-37.2,29.1-58,43.1c-35.7,24-66.7,52.1-94.9,85.1
	c-22.4,26.3-42.6,53.7-62.9,82.9c-9,12.9-18.3,28.3-29.5,45.6c-24.3,37.7-51.5,86.4-82,142.6c-33.7,62.7-71.2,126.5-110.8,193
	C462.7,904.3,447.1,1013,534.4,1069.9z"/>
<linearGradient id="SVGID_00000051355869105557031550000007070121694229452192_" gradientUnits="userSpaceOnUse" x1="422.0307" y1="474.2837" x2="1718.0302" y2="636.5437" gradientTransform="matrix(1 0 0 -1 0 1138)">
	<stop  offset="0" style="stop-color:#FFFFFF;stop-opacity:0"/>
	<stop  offset="0.75" style="stop-color:#FFFFFF;stop-opacity:0.41"/>
</linearGradient>
<path style="fill:none;stroke:url(#SVGID_00000051355869105557031550000007070121694229452192_);stroke-width:3;stroke-opacity:0.2;" d="
	M521.7,1081.2c99.5,65.1,234-6.9,317-67.9c102.2-75.1,199.7-164.2,327-197.2c134.3-34.9,308.5-18.5,427.9-98.2
	c84.3-56.2,131.2-162.3,119.1-259.1c-5.7-45.1-28.9-86.4-53.4-124.3c-32.8-50.5-53-120.8-104.4-154
	c-85.7-55.2-186.6-75.2-285.3-81.1c-92.8-5.6-179.3,9.1-253.9,45c-27,13.1-51.8,28.9-75.8,46.5c-19.4,14.3-38.5,29.5-57.8,45.7
	c-33.8,28.2-63.1,62-88.3,101.7c-20,31.5-37.2,64.1-54.3,97.8c-7.4,14.6-15.4,31.9-25.1,51.4c-20.2,40.7-44.7,91.7-76.1,149.3
	c-33.1,60.8-73.2,124.8-121.7,191.8C459.6,907.3,427.3,1019.6,521.7,1081.2z"/>
<linearGradient id="SVGID_00000129191917938309168210000009521961143929268871_" gradientUnits="userSpaceOnUse" x1="408.2404" y1="478.3263" x2="1740.4403" y2="645.1202" gradientTransform="matrix(1 0 0 -1 0 1138)">
	<stop  offset="0" style="stop-color:#FFFFFF;stop-opacity:0"/>
	<stop  offset="0.75" style="stop-color:#FFFFFF;stop-opacity:0.41"/>
</linearGradient>
<path style="fill:none;stroke:url(#SVGID_00000129191917938309168210000009521961143929268871_);stroke-width:3;stroke-opacity:0.2;" d="
	M743.8,432.6c-30.3,83.3-78.7,236.2-222.9,403.7c-64.3,74.5-113.4,189.7-11.9,256.1c104,68.1,244.6-7.2,331.3-70.8
	c106.8-78.4,208.7-171.5,341.8-206.1c140.3-36.6,310.1-7.8,434.9-91.1c88.1-58.8,131.4-168.4,118.8-269.5
	c-12.7-101.1-75.9-192.2-160.1-254c-84.3-61.7-188.1-96.1-293.5-112.1C1068.2,56.4,882.6,125.5,789.5,320
	C771.9,356.5,757.6,394.5,743.8,432.6z"/>
</svg>
