<svg width="18" height="16" viewBox="0 0 18 16" fill="none" xmlns="http://www.w3.org/2000/svg">
<path d="M1.70643 8.95909L1.76073 8.87809L5.29041 3.39709C5.34472 3.31609 5.45332 3.31609 5.50763 3.42409C6.10496 4.74709 6.59368 6.36709 6.37647 7.39309C6.26786 7.82509 5.99635 8.39209 5.67053 8.90509C5.64338 8.98609 5.58908 9.06709 5.53478 9.12109C5.50762 9.14809 5.48047 9.17509 5.42617 9.17509H1.78788C1.70643 9.14809 1.65213 9.04009 1.70643 8.95909Z" fill="white"/>
<path d="M17.4272 9.9849V10.8489C17.4272 10.9029 17.4001 10.9299 17.3458 10.9569C17.0743 11.0649 16.124 11.4969 15.7438 12.0369C14.7392 13.4139 13.979 15.3849 12.2956 15.3849H5.20909C2.71116 15.3849 0.674805 13.3599 0.674805 10.8489V10.7679C0.674805 10.7139 0.729107 10.6599 0.78341 10.6599H4.77467C4.85612 10.6599 4.91042 10.7409 4.91042 10.7949C4.88327 11.0379 4.93758 11.3079 5.04618 11.5509C5.29054 12.0369 5.77927 12.3069 6.29514 12.3069H8.25005V10.7949H6.3223C6.21369 10.7949 6.15939 10.6869 6.21369 10.6059C6.24084 10.5789 6.26799 10.5519 6.29514 10.4979C6.4852 10.2279 6.72957 9.8499 7.00108 9.3909C7.19114 9.0939 7.35405 8.7429 7.48981 8.4189C7.51696 8.3649 7.54411 8.3109 7.57126 8.2299C7.59841 8.1219 7.65272 8.0139 7.67987 7.9329C7.70702 7.8519 7.73417 7.7709 7.76132 7.6899C7.81562 7.4199 7.84277 7.1229 7.84277 6.7989C7.84277 6.6909 7.84278 6.5559 7.81562 6.4209C7.81562 6.2859 7.78847 6.1509 7.78847 6.0159C7.78847 5.9079 7.76132 5.7729 7.73417 5.6649C7.70702 5.4759 7.67987 5.3139 7.62556 5.1249L7.59841 5.0709C7.57126 4.9629 7.54411 4.8279 7.48981 4.7199C7.3812 4.3419 7.24544 3.9639 7.10969 3.6399C7.05538 3.5049 7.00108 3.3699 6.94678 3.2349C6.86532 3.0459 6.78387 2.8569 6.70242 2.6949C6.67526 2.6139 6.62096 2.5599 6.59381 2.4789C6.56666 2.3979 6.51236 2.3169 6.4852 2.2359C6.45805 2.1819 6.4309 2.1279 6.40375 2.0739L6.15939 1.6419C6.13224 1.5879 6.18654 1.5069 6.24084 1.5339L7.73417 1.9389L7.92423 1.9929L8.14144 2.0469L8.2229 2.0739V1.1829C8.2229 0.750902 8.57586 0.399902 8.98313 0.399902C9.20035 0.399902 9.3904 0.480902 9.52616 0.615902C9.66192 0.750902 9.74337 0.939902 9.74337 1.1559V2.4519L9.90628 2.5059C9.90628 2.5059 9.93343 2.5059 9.93343 2.5329C9.96058 2.5599 10.0149 2.6139 10.0963 2.6679C10.1506 2.7219 10.2049 2.7759 10.2864 2.8299C10.4222 2.9379 10.6122 3.0999 10.8023 3.2619C10.8566 3.3159 10.9109 3.3429 10.938 3.3969C11.1824 3.6129 11.4539 3.8829 11.7254 4.1799C11.8069 4.2609 11.8612 4.3419 11.9426 4.4229C12.0241 4.5039 12.0784 4.6119 12.1598 4.6929C12.2413 4.8009 12.3499 4.9359 12.4314 5.0439C12.4585 5.0979 12.5128 5.1519 12.54 5.2329C12.6486 5.3949 12.73 5.5569 12.8386 5.7189C12.8658 5.7999 12.9201 5.8809 12.9472 5.9619C13.0558 6.1779 13.1373 6.3939 13.1644 6.6369C13.1916 6.6909 13.1916 6.7449 13.1916 6.7719C13.2188 6.8259 13.2188 6.9069 13.2188 6.9879C13.2459 7.2309 13.2188 7.4469 13.1916 7.6899C13.1644 7.7979 13.1373 7.8789 13.1101 7.9869C13.083 8.0679 13.0558 8.1759 13.0015 8.2839C12.9201 8.4729 12.8115 8.6619 12.7029 8.8509C12.6757 8.9049 12.6214 8.9859 12.5671 9.0669C12.5128 9.1479 12.4585 9.2019 12.4314 9.2829C12.3771 9.3639 12.2956 9.4449 12.2413 9.5259C12.187 9.6069 12.1327 9.6879 12.0512 9.7689C11.9698 9.8769 11.8612 9.9849 11.7797 10.0929C11.7254 10.1469 11.6711 10.2279 11.5897 10.2819C11.5354 10.3359 11.4811 10.4169 11.3996 10.4709C11.3182 10.5519 11.2367 10.6329 11.1552 10.6869L10.9923 10.8219C10.9652 10.8489 10.938 10.8489 10.9109 10.8489H9.71622V12.3609H11.2095C11.5354 12.3609 11.8612 12.2529 12.1055 12.0369C12.187 11.9559 12.5671 11.6319 13.0287 11.1459C13.0558 11.1189 13.0558 11.1189 13.083 11.1189L17.21 9.9309C17.3729 9.8499 17.4272 9.9039 17.4272 9.9849Z" fill="white"/>
</svg>
