<svg width="27" height="26" viewBox="0 0 27 26" fill="none" xmlns="http://www.w3.org/2000/svg">
<path d="M26.1673 11.365L20.6529 16.7591L21.9705 24.3597H21.9707C22.0157 24.6202 21.9616 24.8881 21.8191 25.1107C21.6764 25.3334 21.4555 25.4943 21.2 25.5622C20.9444 25.63 20.6727 25.5996 20.4385 25.477L13.6044 21.8996L6.78303 25.5012C6.54925 25.6247 6.27766 25.656 6.02193 25.5891C5.76602 25.5224 5.5446 25.362 5.40115 25.14C5.25771 24.9178 5.20277 24.6501 5.24702 24.3894L6.53747 16.7845L1.00419 11.4098C0.814657 11.2256 0.700895 10.9771 0.685409 10.7133C0.669921 10.4492 0.753995 10.1891 0.920857 9.98406C1.08772 9.77902 1.32538 9.64388 1.58699 9.60553L9.21879 8.48269L12.6201 1.55937C12.707 1.38237 12.8419 1.23302 13.0092 1.12867C13.1766 1.02413 13.3698 0.96863 13.5671 0.968262H13.5691C13.766 0.968262 13.959 1.02321 14.1265 1.12701C14.2939 1.231 14.4289 1.37942 14.5164 1.55587L17.9427 8.46739L25.5783 9.56314C25.8399 9.60057 26.0781 9.73498 26.2457 9.93927C26.4133 10.1437 26.4981 10.4037 26.4838 10.6676C26.4692 10.9316 26.3564 11.1805 26.1674 11.3654L26.1673 11.365Z" fill="white"/>
</svg>
